<?xml version="1.0" encoding="iso-8859-1"?>
<!-- Generator: Adobe Illustrator 19.0.0, SVG Export Plug-In . SVG Version: 6.00 Build 0)  -->
<svg version="1.1" id="Capa_1" xmlns="http://www.w3.org/2000/svg" xmlns:xlink="http://www.w3.org/1999/xlink" x="0px" y="0px"
	 viewBox="0 0 53 53" style="enable-background:new 0 0 53 53;" xml:space="preserve">
<path style="fill:#559A92;" d="M20.713,26.836c-4.318-1.049-10.154,1-14.766,5.611c-6.074,6.074-7.716,14.281-3.666,18.331
	c4.05,4.05,12.257,2.408,18.331-3.666c4.652-4.652,6.692-10.548,5.579-14.877C23.242,32.108,20.886,29.774,20.713,26.836z"/>
<path style="fill:#559A92;" d="M47.052,32.448c-4.656-4.656-10.559-6.695-14.889-5.575c-0.187,2.879-2.472,5.164-5.351,5.351
	c-1.12,4.329,0.919,10.233,5.576,14.889c6.074,6.074,14.281,7.716,18.331,3.666S53.127,38.522,47.052,32.448z"/>
<path style="fill:#559A92;" d="M50.719,2.221c-4.05-4.05-12.257-2.408-18.331,3.666c-4.656,4.656-6.696,10.56-5.576,14.889
	c2.879,0.187,5.164,2.472,5.351,5.351c4.329,1.12,10.233-0.919,14.889-5.576C53.127,14.478,54.768,6.271,50.719,2.221z"/>
<path style="fill:#559A92;" d="M26.191,20.764c1.113-4.328-0.927-10.225-5.579-14.877C14.538-0.187,6.331-1.828,2.281,2.221
	c-4.049,4.05-2.408,12.257,3.666,18.331c4.611,4.611,10.448,6.66,14.766,5.611C20.886,23.226,23.242,20.892,26.191,20.764z"/>
<circle style="fill:#556080;" cx="41.105" cy="11.835" r="3.457"/>
<circle style="fill:#556080;" cx="11.775" cy="41.165" r="3.457"/>
<circle style="fill:#556080;" cx="41.105" cy="41.165" r="3.457"/>
<circle style="fill:#556080;" cx="11.775" cy="11.835" r="3.457"/>
<path style="fill:#556080;" d="M23.136,21.813c-0.024-0.03-0.035-0.066-0.062-0.094l-8.146-8.147c-0.391-0.391-1.023-0.391-1.414,0
	s-0.391,1.023,0,1.414l8.146,8.147c0.026,0.026,0.061,0.037,0.09,0.06C22.127,22.656,22.599,22.192,23.136,21.813z"/>
<path style="fill:#556080;" d="M39.368,13.572c-0.391-0.391-1.023-0.391-1.414,0l-8.147,8.147c-0.027,0.027-0.038,0.063-0.062,0.093
	c0.537,0.378,1.004,0.846,1.383,1.383c0.03-0.024,0.066-0.034,0.093-0.062l8.147-8.147C39.759,14.596,39.759,13.963,39.368,13.572z"
	/>
<path style="fill:#556080;" d="M31.221,29.867c-0.027-0.027-0.063-0.038-0.093-0.062c-0.378,0.537-0.846,1.004-1.383,1.383
	c0.024,0.03,0.034,0.066,0.062,0.093l8.147,8.147c0.195,0.195,0.451,0.293,0.707,0.293s0.512-0.098,0.707-0.293
	c0.391-0.391,0.391-1.023,0-1.414L31.221,29.867z"/>
<path style="fill:#556080;" d="M23.136,31.187c-0.536-0.379-1.009-0.842-1.387-1.38c-0.029,0.023-0.063,0.033-0.09,0.06
	l-8.146,8.147c-0.391,0.391-0.391,1.023,0,1.414c0.195,0.195,0.451,0.293,0.707,0.293s0.512-0.098,0.707-0.293l8.146-8.147
	C23.101,31.253,23.112,31.217,23.136,31.187z"/>
<g>
</g>
<g>
</g>
<g>
</g>
<g>
</g>
<g>
</g>
<g>
</g>
<g>
</g>
<g>
</g>
<g>
</g>
<g>
</g>
<g>
</g>
<g>
</g>
<g>
</g>
<g>
</g>
<g>
</g>
</svg>
