<?xml version="1.0" encoding="iso-8859-1"?>
<!-- Generator: Adobe Illustrator 19.0.0, SVG Export Plug-In . SVG Version: 6.00 Build 0)  -->
<svg version="1.1" id="Capa_1" xmlns="http://www.w3.org/2000/svg" xmlns:xlink="http://www.w3.org/1999/xlink" x="0px" y="0px"
	 viewBox="0 0 52 52" style="enable-background:new 0 0 52 52;" xml:space="preserve">
<path style="fill:#559A92;" d="M31,24h11.854C47.905,24,52,19.905,52,14.854V1H38.146C33.095,1,29,5.095,29,10.146v9.605"/>
<path style="fill:#559A92;" d="M20,24H9.146C4.095,24,0,19.905,0,14.854L0,1h13.854C18.905,1,23,5.095,23,10.146v9.605"/>
<path style="fill:#559A92;" d="M20,28H9.146C4.095,28,0,32.095,0,37.146L0,51h13.854C18.905,51,23,46.905,23,41.854V32"/>
<path style="fill:#559A92;" d="M32,28h10.854C47.905,28,52,32.095,52,37.146V51H38.146C33.095,51,29,46.905,29,41.854v-9.605"/>
<path style="fill:#556080;" d="M31.976,22.459l8.776-8.969c0.704-0.704,0.876-1.839,0.294-2.647
	c-0.742-1.03-2.188-1.116-3.047-0.257l-8.852,9.044c-1.847,1.847-4.842,1.847-6.689,0L14,11.247
	c-0.705-0.705-1.839-0.876-2.647-0.294c-1.03,0.742-1.116,2.188-0.257,3.047l8.534,8.459c1.847,1.847,1.847,4.842,0,6.689
	l-8.383,8.362c-0.704,0.704-0.876,1.839-0.294,2.647c0.742,1.03,2.188,1.116,3.047,0.257l8.459-8.438
	c1.847-1.847,4.842-1.847,6.689,0L38,40.753c0.704,0.704,1.839,0.876,2.647,0.294c1.03-0.742,1.116-2.188,0.257-3.047l-8.928-8.852
	C30.129,27.301,30.129,24.306,31.976,22.459z"/>
<g>
</g>
<g>
</g>
<g>
</g>
<g>
</g>
<g>
</g>
<g>
</g>
<g>
</g>
<g>
</g>
<g>
</g>
<g>
</g>
<g>
</g>
<g>
</g>
<g>
</g>
<g>
</g>
<g>
</g>
</svg>
