<?xml version="1.0" encoding="iso-8859-1"?>
<!-- Generator: Adobe Illustrator 19.0.0, SVG Export Plug-In . SVG Version: 6.00 Build 0)  -->
<svg version="1.1" id="Capa_1" xmlns="http://www.w3.org/2000/svg" xmlns:xlink="http://www.w3.org/1999/xlink" x="0px" y="0px"
	 viewBox="0 0 58 58" style="enable-background:new 0 0 58 58;" xml:space="preserve">
<path style="fill:#E64C3C;" d="M31,18.101V12h6.202c0.76,3.728,3.601,6.709,7.252,7.671C45.736,20.01,47,19.066,47,17.74
	c0-0.913-0.621-1.702-1.504-1.931C42.913,15.14,41,12.789,41,10s1.913-5.14,4.496-5.809C46.379,3.962,47,3.173,47,2.26
	c0-1.326-1.264-2.27-2.546-1.932C40.803,1.291,37.962,4.272,37.202,8H31V2c0-1.105-0.896-2-2-2s-2,0.895-2,2v6h-6.202
	c-0.76-3.728-3.601-6.709-7.252-7.672C12.264-0.01,11,0.934,11,2.26c0,0.913,0.621,1.702,1.504,1.931C15.087,4.86,17,7.211,17,10
	s-1.913,5.14-4.496,5.809C11.621,16.038,11,16.827,11,17.74c0,1.327,1.264,2.27,2.546,1.932c3.651-0.962,6.492-3.943,7.252-7.671H27
	v6.101C16.742,19.125,8.741,27.929,9.006,38.51c0.258,10.311,8.596,18.906,18.895,19.46C39.426,58.59,49,49.392,49,38
	C49,27.647,41.093,19.108,31,18.101z M29,54c-8.837,0-16-7.163-16-16s7.163-16,16-16s16,7.163,16,16S37.837,54,29,54z"/>
<g>
</g>
<g>
</g>
<g>
</g>
<g>
</g>
<g>
</g>
<g>
</g>
<g>
</g>
<g>
</g>
<g>
</g>
<g>
</g>
<g>
</g>
<g>
</g>
<g>
</g>
<g>
</g>
<g>
</g>
</svg>
