<?xml version="1.0" encoding="iso-8859-1"?>
<!-- Generator: Adobe Illustrator 19.0.0, SVG Export Plug-In . SVG Version: 6.00 Build 0)  -->
<svg version="1.1" id="Capa_1" xmlns="http://www.w3.org/2000/svg" xmlns:xlink="http://www.w3.org/1999/xlink" x="0px" y="0px"
	 viewBox="0 0 57.239 57.239" style="enable-background:new 0 0 57.239 57.239;" xml:space="preserve">
<path style="fill:#546A79;" d="M55.239,17.611h-6.436l5.208-9h1.228c1.105,0,2-0.895,2-2c0-1.105-0.895-2-2-2h-0.64h-9.36H27.972
	H0.997c-0.77,0-1.248,0.836-0.859,1.5l26.969,46.025c0.386,0.659,1.339,0.656,1.721-0.005l17.661-30.52h8.75c1.105,0,2-0.895,2-2
	C57.239,18.507,56.344,17.611,55.239,17.611z M27.95,45.662L6.239,8.611h43.15L27.95,45.662z"/>
<g>
</g>
<g>
</g>
<g>
</g>
<g>
</g>
<g>
</g>
<g>
</g>
<g>
</g>
<g>
</g>
<g>
</g>
<g>
</g>
<g>
</g>
<g>
</g>
<g>
</g>
<g>
</g>
<g>
</g>
</svg>
