<?xml version="1.0" encoding="iso-8859-1"?>
<!-- Generator: Adobe Illustrator 19.0.0, SVG Export Plug-In . SVG Version: 6.00 Build 0)  -->
<svg version="1.1" id="Capa_1" xmlns="http://www.w3.org/2000/svg" xmlns:xlink="http://www.w3.org/1999/xlink" x="0px" y="0px"
	 viewBox="0 0 58 58" style="enable-background:new 0 0 58 58;" xml:space="preserve">
<path style="fill:#7F5B53;" d="M41.766,18H37v-4.345c0-0.184-0.037-0.358-0.093-0.524l0,0C39.411,11.757,41,9.747,41,7.5
	C41,3.358,35.627,0,29,0S17,3.358,17,7.5c0,2.509,1.979,4.725,5.007,6.087C22.006,13.61,22,13.632,22,13.655V18h-5.766
	C8.955,18,3,23.955,3,31.234l0,22.578c0,2.086,1.514,3.958,3.59,4.168C8.972,58.22,11,56.335,11,54V33.804
	c0-1.928,1.563-3.491,3.491-3.491H14.5c1.929,0,3.492,1.561,3.491,3.49C17.984,42.751,18,54,18,54c0,1.925,1.575,3.5,3.5,3.5
	S25,55.925,25,54c0,0,0.015-11.023,0.009-20c-0.001-1.891,1.414-3.583,3.302-3.682c2.015-0.106,3.681,1.494,3.68,3.485
	C31.984,42.751,32,54,32,54c0,1.925,1.575,3.5,3.5,3.5S39,55.925,39,54c0,0,0.016-11.249,0.009-20.197
	c-0.001-1.929,1.562-3.49,3.491-3.49h1.009c1.928,0,3.491,1.563,3.491,3.491v20.008c0,2.086,1.514,3.958,3.59,4.168
	C52.972,58.22,55,56.335,55,54V31.234C55,23.955,49.045,18,41.766,18z"/>
<path style="fill:#E4C05C;" d="M22.468,1.213C22.17,1.769,22,2.37,22,3c0,2.761,3.134,5,7,5s7-2.239,7-5
	c0-0.63-0.17-1.231-0.468-1.787C33.651,0.449,31.411,0,29,0S24.349,0.449,22.468,1.213z"/>
<g>
</g>
<g>
</g>
<g>
</g>
<g>
</g>
<g>
</g>
<g>
</g>
<g>
</g>
<g>
</g>
<g>
</g>
<g>
</g>
<g>
</g>
<g>
</g>
<g>
</g>
<g>
</g>
<g>
</g>
</svg>
