<?xml version="1.0" encoding="iso-8859-1"?>
<!-- Generator: Adobe Illustrator 19.0.0, SVG Export Plug-In . SVG Version: 6.00 Build 0)  -->
<svg version="1.1" id="Capa_1" xmlns="http://www.w3.org/2000/svg" xmlns:xlink="http://www.w3.org/1999/xlink" x="0px" y="0px"
	 viewBox="0 0 54 54" style="enable-background:new 0 0 54 54;" xml:space="preserve">
<path style="fill:#D75A4A;" d="M45,25.5c0,1.611-0.171,3.213-0.496,4.767c0.915,0.195,1.786,0.503,2.612,0.894l1.235,0.275
	C48.781,29.504,49,27.507,49,25.5C49,11.99,39.131,1,27,1S5,11.99,5,25.5c0,2.011,0.219,4.01,0.651,5.941l1.216-0.272
	c0.83-0.395,1.708-0.706,2.629-0.902C9.171,28.714,9,27.113,9,25.5C9,14.196,17.075,5,27,5S45,14.196,45,25.5z"/>
<path style="fill:#994530;" d="M12,53C5.383,53,0,47.617,0,41s5.383-12,12-12s12,5.383,12,12S18.617,53,12,53z"/>
<circle style="fill:#D75A4A;" cx="12" cy="41" r="8"/>
<path style="fill:#994530;" d="M42,53c-6.617,0-12-5.383-12-12s5.383-12,12-12s12,5.383,12,12S48.617,53,42,53z"/>
<circle style="fill:#D75A4A;" cx="42" cy="41" r="8"/>
<g>
</g>
<g>
</g>
<g>
</g>
<g>
</g>
<g>
</g>
<g>
</g>
<g>
</g>
<g>
</g>
<g>
</g>
<g>
</g>
<g>
</g>
<g>
</g>
<g>
</g>
<g>
</g>
<g>
</g>
</svg>
