<?xml version="1.0" encoding="iso-8859-1"?>
<!-- Generator: Adobe Illustrator 19.0.0, SVG Export Plug-In . SVG Version: 6.00 Build 0)  -->
<svg version="1.1" id="Capa_1" xmlns="http://www.w3.org/2000/svg" xmlns:xlink="http://www.w3.org/1999/xlink" x="0px" y="0px"
	 viewBox="0 0 56 56" style="enable-background:new 0 0 56 56;" xml:space="preserve">
<path style="fill:#7F5B53;" d="M14,0C6.556,0,0.5,6.056,0.5,13.5S6.556,27,14,27s13.5-6.056,13.5-13.5S21.444,0,14,0z M14,23
	c-5.247,0-9.5-4.253-9.5-9.5S8.753,4,14,4s9.5,4.253,9.5,9.5S19.247,23,14,23z"/>
<path style="fill:#E4C05C;" d="M15.834,7.31c0.232,0.081,0.457,0.172,0.666,0.281V4.344C15.702,4.126,14.867,4,14,4
	s-1.702,0.126-2.5,0.344v3.247c0.209-0.109,0.434-0.2,0.666-0.281C10.597,7.857,9.5,9.076,9.5,10.5c0,1.933,2.015,3.5,4.5,3.5
	s4.5-1.567,4.5-3.5C18.5,9.076,17.403,7.857,15.834,7.31z M13.186,7.064C13.451,7.026,13.721,7,14,7s0.549,0.026,0.814,0.064
	C14.549,7.026,14.279,7,14,7S13.451,7.026,13.186,7.064z M12.4,7.238c0.177-0.053,0.358-0.096,0.545-0.132
	C12.759,7.142,12.577,7.186,12.4,7.238z M15.6,7.238c-0.177-0.053-0.358-0.097-0.545-0.132C15.242,7.142,15.423,7.186,15.6,7.238z"
	/>
<path style="fill:#7F5B53;" d="M42,0c-7.444,0-13.5,6.056-13.5,13.5S34.556,27,42,27s13.5-6.056,13.5-13.5S49.444,0,42,0z M42,23
	c-5.247,0-9.5-4.253-9.5-9.5S36.753,4,42,4s9.5,4.253,9.5,9.5S47.247,23,42,23z"/>
<path style="fill:#E4C05C;" d="M43.834,7.31c0.232,0.081,0.457,0.172,0.666,0.281V4.344C43.702,4.126,42.867,4,42,4
	s-1.702,0.126-2.5,0.344v3.247c0.209-0.109,0.434-0.2,0.666-0.281C38.597,7.857,37.5,9.076,37.5,10.5c0,1.933,2.015,3.5,4.5,3.5
	s4.5-1.567,4.5-3.5C46.5,9.076,45.403,7.857,43.834,7.31z M41.186,7.064C41.451,7.026,41.721,7,42,7s0.549,0.026,0.814,0.064
	C42.549,7.026,42.279,7,42,7S41.451,7.026,41.186,7.064z M40.4,7.238c0.177-0.053,0.358-0.096,0.545-0.132
	C40.759,7.142,40.577,7.186,40.4,7.238z M43.6,7.238c-0.177-0.053-0.358-0.097-0.545-0.132C43.242,7.142,43.423,7.186,43.6,7.238z"
	/>
<path style="fill:#7F5B53;" d="M14,29C6.556,29,0.5,35.056,0.5,42.5S6.556,56,14,56s13.5-6.056,13.5-13.5S21.444,29,14,29z M14,52
	c-5.247,0-9.5-4.253-9.5-9.5S8.753,33,14,33s9.5,4.253,9.5,9.5S19.247,52,14,52z"/>
<path style="fill:#E4C05C;" d="M15.834,36.31c0.232,0.081,0.457,0.172,0.666,0.281v-3.247C15.702,33.126,14.867,33,14,33
	s-1.702,0.126-2.5,0.344v3.247c0.209-0.109,0.434-0.2,0.666-0.281C10.597,36.857,9.5,38.076,9.5,39.5c0,1.933,2.015,3.5,4.5,3.5
	s4.5-1.567,4.5-3.5C18.5,38.076,17.403,36.857,15.834,36.31z M13.186,36.064C13.451,36.026,13.721,36,14,36s0.549,0.026,0.814,0.064
	C14.549,36.026,14.279,36,14,36S13.451,36.026,13.186,36.064z M12.4,36.238c0.177-0.053,0.358-0.096,0.545-0.132
	C12.759,36.142,12.577,36.186,12.4,36.238z M15.6,36.238c-0.177-0.053-0.358-0.097-0.545-0.132
	C15.242,36.142,15.423,36.186,15.6,36.238z"/>
<path style="fill:#7F5B53;" d="M42,29c-7.444,0-13.5,6.056-13.5,13.5S34.556,56,42,56s13.5-6.056,13.5-13.5S49.444,29,42,29z M42,52
	c-5.247,0-9.5-4.253-9.5-9.5S36.753,33,42,33s9.5,4.253,9.5,9.5S47.247,52,42,52z"/>
<path style="fill:#E4C05C;" d="M43.834,36.31c0.232,0.081,0.457,0.172,0.666,0.281v-3.247C43.702,33.126,42.867,33,42,33
	s-1.702,0.126-2.5,0.344v3.247c0.209-0.109,0.434-0.2,0.666-0.281c-1.569,0.547-2.666,1.766-2.666,3.19c0,1.933,2.015,3.5,4.5,3.5
	s4.5-1.567,4.5-3.5C46.5,38.076,45.403,36.857,43.834,36.31z M41.186,36.064C41.451,36.026,41.721,36,42,36s0.549,0.026,0.814,0.064
	C42.549,36.026,42.279,36,42,36S41.451,36.026,41.186,36.064z M40.4,36.238c0.177-0.053,0.358-0.096,0.545-0.132
	C40.759,36.142,40.577,36.186,40.4,36.238z M43.6,36.238c-0.177-0.053-0.358-0.097-0.545-0.132
	C43.242,36.142,43.423,36.186,43.6,36.238z"/>
<g>
</g>
<g>
</g>
<g>
</g>
<g>
</g>
<g>
</g>
<g>
</g>
<g>
</g>
<g>
</g>
<g>
</g>
<g>
</g>
<g>
</g>
<g>
</g>
<g>
</g>
<g>
</g>
<g>
</g>
</svg>
