<?xml version="1.0" encoding="iso-8859-1"?>
<!-- Generator: Adobe Illustrator 19.0.0, SVG Export Plug-In . SVG Version: 6.00 Build 0)  -->
<svg version="1.1" id="Capa_1" xmlns="http://www.w3.org/2000/svg" xmlns:xlink="http://www.w3.org/1999/xlink" x="0px" y="0px"
	 viewBox="0 0 58 58" style="enable-background:new 0 0 58 58;" xml:space="preserve">
<path style="fill:#7F5B53;" d="M40.25,0c-4.385,0-8.511,3.281-11.412,7.859c-0.042,0.066-0.136,0.065-0.177-0.001
	C25.771,3.28,22.135,0,17.75,0C8.344,0,1.25,12.467,1.25,29s7.094,29,16.5,29c4.385,0,8.021-3.28,10.911-7.859
	c0.042-0.066,0.135-0.066,0.177-0.001C31.739,54.719,35.865,58,40.25,58c9.406,0,16.5-12.467,16.5-29S49.656,0,40.25,0z"/>
<path style="fill:#AF8066;" d="M40.25,4c-4.746,0-9.098,5.213-11.233,13H40.75c0,0-4.353,5.082-7.004,8.68
	C32.671,24.065,30.836,23,28.75,23s-3.921,1.065-4.996,2.68C21.103,22.082,16.75,17,16.75,17h11.737C26.389,9.213,22.496,4,17.75,4
	c-6.904,0-12.5,11.193-12.5,25s5.596,25,12.5,25c4.746,0,8.639-5.213,10.737-13H16.75c0,0,4.419-4.972,7.064-8.593
	C24.896,33.972,26.702,35,28.75,35s3.854-1.028,4.936-2.593C36.331,36.028,40.75,41,40.75,41H29.017c2.135,7.787,6.487,13,11.233,13
	c6.904,0,12.5-11.193,12.5-25S47.154,4,40.25,4z"/>
<circle style="fill:#D9B24C;" cx="28.75" cy="29" r="6"/>
<g>
</g>
<g>
</g>
<g>
</g>
<g>
</g>
<g>
</g>
<g>
</g>
<g>
</g>
<g>
</g>
<g>
</g>
<g>
</g>
<g>
</g>
<g>
</g>
<g>
</g>
<g>
</g>
<g>
</g>
</svg>
