<?xml version="1.0" encoding="iso-8859-1"?>
<!-- Generator: Adobe Illustrator 19.0.0, SVG Export Plug-In . SVG Version: 6.00 Build 0)  -->
<svg version="1.1" id="Capa_1" xmlns="http://www.w3.org/2000/svg" xmlns:xlink="http://www.w3.org/1999/xlink" x="0px" y="0px"
	 viewBox="0 0 57 57" style="enable-background:new 0 0 57 57;" xml:space="preserve">
<path style="fill:#559A92;" d="M28.809,5.392c0,0,4.079-0.172,8.762,0.837C36.57,2.649,33.278,0,29.39,0
	c-3.804,0-7.045,2.533-8.12,5.996C25.411,5.266,28.809,5.392,28.809,5.392z"/>
<path style="fill:#556080;" d="M49.582,13.384C44.677,4.04,28.489,4.728,28.489,4.728S12.052,4.103,7.397,13.384
	c-1.44,2.872-1.155,6.311,0.085,9.275C10.53,29.943,19.148,48.793,27.585,56c0.525,0.448,1.475,0.448,2,0
	c8.436-7.207,16.864-26.057,19.912-33.341C50.738,19.696,51.076,16.229,49.582,13.384z"/>
<path style="fill:#559A92;" d="M29.143,49.813c-0.224,0.249-0.615,0.249-0.839,0c-5.929-6.608-11.944-19.074-16.071-28.936
	c-0.794-1.897-0.879-3.805-0.229-5.103c2.339-4.663,11.144-5.907,15.977-5.907c0.267,0,0.431,0.004,0.469,0.006l0.189,0.006
	l0.201-0.008c0.031-0.001,0.221-0.007,0.529-0.007c5.895,0,13.603,1.569,15.925,5.992c0.638,1.215,0.536,3.092-0.271,5.021
	C40.898,30.739,35.085,43.206,29.143,49.813z"/>
<path style="fill:#559A92;" d="M20.352,53.212c-0.575-0.643-1.485-0.815-2.287-0.496c-1.052,0.419-2.28,0.389-3.404-0.194
	c-0.918-0.476-1.613-1.337-1.903-2.33c-0.641-2.201,2.205-5.498,4.069-6.193c0.385-0.144,0.71-0.387,0.953-0.69
	c-0.63-1.052-1.245-2.119-1.844-3.19c-0.117,0.018-0.235,0.035-0.352,0.076c-3.638,1.273-7.722,6.357-6.808,10.579
	c0.545,2.521,2.345,4.668,4.739,5.627c2.085,0.835,4.287,0.77,6.185-0.033c1.239-0.524,1.55-2.15,0.654-3.154L20.352,53.212z"/>
<path style="fill:#559A92;" d="M41.058,40.274c-0.639,1.155-1.298,2.304-1.973,3.434c0.164,0.119,0.345,0.219,0.542,0.292
	c1.864,0.695,4.71,3.992,4.069,6.193c-0.289,0.993-0.984,1.854-1.903,2.33c-1.125,0.583-2.353,0.612-3.404,0.194
	c-0.802-0.319-1.712-0.148-2.287,0.496L36.1,53.215c-0.897,1.003-0.586,2.63,0.654,3.154c1.898,0.803,4.1,0.868,6.185,0.033
	c2.394-0.959,4.194-3.106,4.739-5.627C48.575,46.625,44.648,41.653,41.058,40.274z"/>
<path style="fill:#81CCB8;" d="M33.724,15.148c-1.207,0-2.746,0.363-4,0.999v-5.999c0-0.099-0.03-0.188-0.056-0.279
	c-0.099-0.001-0.2-0.005-0.298-0.005c-0.309,0-0.498,0.006-0.529,0.007L28.64,9.879L28.45,9.873
	c-0.038-0.002-0.202-0.006-0.469-0.006c-0.064,0-0.136,0.003-0.201,0.003c-0.026,0.09-0.056,0.179-0.056,0.277v6
	c-1.254-0.637-2.793-1-4-1c-3.309,0-6,2.691-6,6s2.691,6,6,6c0.552,0,1-0.448,1-1s-0.448-1-1-1c-2.206,0-4-1.794-4-4s1.794-4,4-4
	c1.276,0,3.175,0.596,4,1.395v30.589c0.193,0.228,0.387,0.465,0.58,0.681c0.224,0.249,0.615,0.25,0.839,0
	c0.194-0.216,0.388-0.454,0.581-0.682V18.543c0.823-0.798,2.722-1.394,4-1.394c2.206,0,4,1.794,4,4s-1.794,4-4,4
	c-0.552,0-1,0.448-1,1s0.448,1,1,1c3.309,0,6-2.691,6-6S37.033,15.148,33.724,15.148z"/>
<g>
</g>
<g>
</g>
<g>
</g>
<g>
</g>
<g>
</g>
<g>
</g>
<g>
</g>
<g>
</g>
<g>
</g>
<g>
</g>
<g>
</g>
<g>
</g>
<g>
</g>
<g>
</g>
<g>
</g>
</svg>
