<?xml version="1.0" encoding="iso-8859-1"?>
<!-- Generator: Adobe Illustrator 19.0.0, SVG Export Plug-In . SVG Version: 6.00 Build 0)  -->
<svg version="1.1" id="Capa_1" xmlns="http://www.w3.org/2000/svg" xmlns:xlink="http://www.w3.org/1999/xlink" x="0px" y="0px"
	 viewBox="0 0 55.376 55.376" style="enable-background:new 0 0 55.376 55.376;" xml:space="preserve">
<path style="fill:#804537;" d="M42.597,33.925c-0.008-0.056-0.016-0.111-0.024-0.166c-0.661-4.356-5.034-7.164-8.891-6.457
	c-0.064,3.258-2.721,5.881-5.994,5.881s-5.93-2.623-5.994-5.881c-3.857-0.708-8.229,2.101-8.891,6.457
	c-0.008,0.055-0.017,0.111-0.024,0.166c-0.426,3.082,0.67,6.183,2.787,8.464l12.122,12.987L39.81,42.389
	C41.927,40.108,43.023,37.007,42.597,33.925z"/>
<path style="fill:#804537;" d="M39.81,12.987L27.688,0L15.566,12.987c-2.117,2.28-3.214,5.381-2.787,8.463
	c0.008,0.056,0.016,0.111,0.024,0.166c0.662,4.356,5.034,7.164,8.891,6.457c0.064-3.258,2.721-5.881,5.994-5.881
	s5.93,2.623,5.994,5.881c3.857,0.708,8.229-2.101,8.891-6.457c0.008-0.055,0.017-0.111,0.024-0.166
	C43.023,18.368,41.927,15.268,39.81,12.987z"/>
<path style="fill:#D9B24C;" d="M27.688,22.193c-0.552,0-1-0.448-1-1c0-1.103-0.897-2-2-2s-2,0.897-2,2c0,0.552-0.448,1-1,1
	s-1-0.448-1-1c0-2.206,1.794-4,4-4s4,1.794,4,4C28.688,21.745,28.24,22.193,27.688,22.193z"/>
<path style="fill:#D9B24C;" d="M33.688,22.193c-0.552,0-1-0.448-1-1c0-1.103-0.897-2-2-2s-2,0.897-2,2c0,0.552-0.448,1-1,1
	s-1-0.448-1-1c0-2.206,1.794-4,4-4s4,1.794,4,4C34.688,21.745,34.24,22.193,33.688,22.193z"/>
<path style="fill:#D9B24C;" d="M30.688,38.183c-2.206,0-4-1.794-4-4c0-0.552,0.448-1,1-1s1,0.448,1,1c0,1.103,0.897,2,2,2
	s2-0.897,2-2c0-0.552,0.448-1,1-1s1,0.448,1,1C34.688,36.388,32.894,38.183,30.688,38.183z"/>
<path style="fill:#D9B24C;" d="M24.688,38.183c-2.206,0-4-1.794-4-4c0-0.552,0.448-1,1-1s1,0.448,1,1c0,1.103,0.897,2,2,2
	s2-0.897,2-2c0-0.552,0.448-1,1-1s1,0.448,1,1C28.688,36.388,26.894,38.183,24.688,38.183z"/>
<g>
</g>
<g>
</g>
<g>
</g>
<g>
</g>
<g>
</g>
<g>
</g>
<g>
</g>
<g>
</g>
<g>
</g>
<g>
</g>
<g>
</g>
<g>
</g>
<g>
</g>
<g>
</g>
<g>
</g>
</svg>
