<?xml version="1.0" encoding="iso-8859-1"?>
<!-- Generator: Adobe Illustrator 19.0.0, SVG Export Plug-In . SVG Version: 6.00 Build 0)  -->
<svg version="1.1" id="Capa_1" xmlns="http://www.w3.org/2000/svg" xmlns:xlink="http://www.w3.org/1999/xlink" x="0px" y="0px"
	 viewBox="0 0 56 56" style="enable-background:new 0 0 56 56;" xml:space="preserve">
<polygon style="fill:#C3A97E;" points="32,56 32,43 24,43 24,56 0,56 0,32 13,32 13,24 0,24 0,0 24,0 24,13 32,13 32,0 56,0 56,24 
	43,24 43,32 56,32 56,56 "/>
<polygon style="fill:#AF8066;" points="52,20 52,4 36,4 36,17 20,17 20,4 4,4 4,20 17,20 17,36 4,36 4,52 20,52 20,39 36,39 36,52 
	52,52 52,36 39,36 39,20 "/>
<polygon style="fill:#E4C05C;" points="29,27 29,17 27,17 27,27 17,27 17,29 27,29 27,39 29,39 29,29 39,29 39,27 "/>
<g>
</g>
<g>
</g>
<g>
</g>
<g>
</g>
<g>
</g>
<g>
</g>
<g>
</g>
<g>
</g>
<g>
</g>
<g>
</g>
<g>
</g>
<g>
</g>
<g>
</g>
<g>
</g>
<g>
</g>
</svg>
