<?xml version="1.0" encoding="iso-8859-1"?>
<!-- Generator: Adobe Illustrator 19.0.0, SVG Export Plug-In . SVG Version: 6.00 Build 0)  -->
<svg version="1.1" id="Capa_1" xmlns="http://www.w3.org/2000/svg" xmlns:xlink="http://www.w3.org/1999/xlink" x="0px" y="0px"
	 viewBox="0 0 58 58" style="enable-background:new 0 0 58 58;" xml:space="preserve">
<rect x="0" y="0" style="fill:#CB8252;" width="58" height="58"/>
<polygon style="fill:#804537;" points="0,0 29,29 58,0 "/>
<polygon style="fill:#804537;" points="58,58 29,29 0,58 "/>
<path style="fill:#CBB292;" d="M48.343,54H9.657c-0.553,0-1-0.448-1-1s0.447-1,1-1h38.686c0.553,0,1,0.448,1,1S48.896,54,48.343,54z
	"/>
<path style="fill:#CBB292;" d="M31,36h-4c-0.553,0-1-0.448-1-1s0.447-1,1-1h4c0.553,0,1,0.448,1,1S31.553,36,31,36z"/>
<path style="fill:#CBB292;" d="M36,42H22c-0.553,0-1-0.448-1-1s0.447-1,1-1h14c0.553,0,1,0.448,1,1S36.553,42,36,42z"/>
<path style="fill:#CBB292;" d="M42,48H16c-0.553,0-1-0.448-1-1s0.447-1,1-1h26c0.553,0,1,0.448,1,1S42.553,48,42,48z"/>
<path style="fill:#CBB292;" d="M48.343,6H9.657c-0.553,0-1-0.448-1-1s0.447-1,1-1h38.686c0.553,0,1,0.448,1,1S48.896,6,48.343,6z"/>
<path style="fill:#CBB292;" d="M31,24h-4c-0.553,0-1-0.448-1-1s0.447-1,1-1h4c0.553,0,1,0.448,1,1S31.553,24,31,24z"/>
<path style="fill:#CBB292;" d="M36,18H22c-0.553,0-1-0.448-1-1s0.447-1,1-1h14c0.553,0,1,0.448,1,1S36.553,18,36,18z"/>
<path style="fill:#CBB292;" d="M42,12H16c-0.553,0-1-0.448-1-1s0.447-1,1-1h26c0.553,0,1,0.448,1,1S42.553,12,42,12z"/>
<g>
</g>
<g>
</g>
<g>
</g>
<g>
</g>
<g>
</g>
<g>
</g>
<g>
</g>
<g>
</g>
<g>
</g>
<g>
</g>
<g>
</g>
<g>
</g>
<g>
</g>
<g>
</g>
<g>
</g>
</svg>
