<?xml version="1.0" encoding="iso-8859-1"?>
<!-- Generator: Adobe Illustrator 19.0.0, SVG Export Plug-In . SVG Version: 6.00 Build 0)  -->
<svg version="1.1" id="Capa_1" xmlns="http://www.w3.org/2000/svg" xmlns:xlink="http://www.w3.org/1999/xlink" x="0px" y="0px"
	 viewBox="0 0 56.687 56.687" style="enable-background:new 0 0 56.687 56.687;" xml:space="preserve">
<path style="fill:#C3A97E;" d="M38.254,30.496c-0.013-0.012-0.026-0.023-0.039-0.034c-1.29-1.147-1.29-3.089,0-4.236
	c0.013-0.011,0.026-0.023,0.039-0.034l11.78-10.601c2.088-1.879,3.333-4.598,3.118-7.399c-0.263-3.429-2.397-6.305-5.531-7.559
	c-1.284-0.513-2.652-0.717-4.044-0.599c-2.012,0.17-3.885,1.103-5.386,2.454l-9.289,8.36c-0.197,0.177-0.412,0.214-0.558,0.214
	s-0.36-0.037-0.557-0.213l-9.329-8.396c-1.428-1.285-3.198-2.184-5.107-2.395C11.25-0.177,9.197,0.32,7.389,1.512
	c-1.37,0.903-2.468,2.203-3.117,3.71c-1.571,3.648-0.64,7.649,2.166,10.174l11.995,10.795c0.013,0.012,0.026,0.023,0.038,0.034
	c1.29,1.147,1.29,3.089,0,4.236c-0.013,0.011-0.026,0.023-0.038,0.034L6.654,41.097c-2.088,1.879-3.333,4.598-3.118,7.399
	c0.263,3.429,2.397,6.305,5.531,7.559c1.284,0.513,2.652,0.717,4.044,0.599c2.012-0.17,3.885-1.103,5.386-2.454l9.289-8.36
	c0.197-0.177,0.412-0.214,0.558-0.214s0.36,0.037,0.557,0.213l9.329,8.396c1.428,1.285,3.198,2.184,5.107,2.395
	c2.101,0.233,4.154-0.264,5.961-1.456c1.37-0.903,2.468-2.203,3.117-3.71c1.571-3.648,0.64-7.649-2.166-10.174L38.254,30.496z"/>
<path style="fill:#7F5B53;" d="M46.135,4.346c-1.709-0.684-3.658-0.337-5.026,0.895l-9.533,8.58c-1.837,1.654-4.627,1.654-6.464,0
	l-9.533-8.58c-1.368-1.231-3.317-1.578-5.026-0.895c-3.323,1.329-4.098,5.683-1.438,8.077l11.995,10.795
	c0.202,0.182,0.42,0.338,0.644,0.481c1.443-2.094,3.855-3.469,6.591-3.469s5.148,1.375,6.591,3.469
	c0.225-0.143,0.442-0.299,0.644-0.481l11.995-10.795C50.233,10.029,49.458,5.675,46.135,4.346z"/>
<path style="fill:#7F5B53;" d="M47.573,44.264L35.578,33.469c-0.237-0.213-0.496-0.39-0.764-0.55
	c-1.454,2.002-3.807,3.309-6.471,3.309s-5.017-1.307-6.471-3.309c-0.268,0.159-0.527,0.336-0.764,0.55L9.114,44.264
	c-2.66,2.394-1.885,6.748,1.438,8.077c1.709,0.684,3.658,0.337,5.026-0.895l9.533-8.58c1.837-1.654,4.627-1.654,6.464,0l9.533,8.58
	c1.368,1.231,3.317,1.578,5.026,0.895C49.458,51.012,50.233,46.658,47.573,44.264z"/>
<g>
</g>
<g>
</g>
<g>
</g>
<g>
</g>
<g>
</g>
<g>
</g>
<g>
</g>
<g>
</g>
<g>
</g>
<g>
</g>
<g>
</g>
<g>
</g>
<g>
</g>
<g>
</g>
<g>
</g>
</svg>
