<?xml version="1.0" encoding="iso-8859-1"?>
<!-- Generator: Adobe Illustrator 19.0.0, SVG Export Plug-In . SVG Version: 6.00 Build 0)  -->
<svg version="1.1" id="Capa_1" xmlns="http://www.w3.org/2000/svg" xmlns:xlink="http://www.w3.org/1999/xlink" x="0px" y="0px"
	 viewBox="0 0 58 58" style="enable-background:new 0 0 58 58;" xml:space="preserve">
<path style="fill:#AF8066;" d="M40.25,4c-4.948,0-9.474,5.658-11.5,14c-2.026-8.342-6.052-14-11-14c-6.904,0-12.5,11.193-12.5,25
	s5.596,25,12.5,25c4.948,0,8.974-5.658,11-14c2.026,8.342,6.552,14,11.5,14c6.904,0,12.5-11.193,12.5-25S47.154,4,40.25,4z"/>
<path style="fill:#7F5B53;" d="M40.25,0c-4.385,0-8.511,3.281-11.411,7.859c-0.042,0.066-0.136,0.065-0.177-0.001
	C25.771,3.28,22.135,0,17.75,0C8.344,0,1.25,12.467,1.25,29s7.094,29,16.5,29c4.385,0,8.021-3.28,10.911-7.859
	c0.042-0.066,0.135-0.066,0.177-0.001C31.739,54.719,35.865,58,40.25,58c9.406,0,16.5-12.467,16.5-29S49.656,0,40.25,0z M40.25,54
	c-4.948,0-9.474-5.658-11.5-14c-2.026,8.342-6.052,14-11,14c-6.904,0-12.5-11.193-12.5-25s5.596-25,12.5-25
	c4.948,0,8.974,5.658,11,14c2.026-8.342,6.552-14,11.5-14c6.904,0,12.5,11.193,12.5,25S47.154,54,40.25,54z"/>
<rect x="27.75" y="17" style="fill:#E4C05C;" width="2" height="24"/>
<rect x="20.75" y="17" style="fill:#E4C05C;" width="16" height="2"/>
<rect x="21.75" y="28" style="fill:#E4C05C;" width="14" height="2"/>
<circle style="fill:#E4C05C;" cx="17.75" cy="18" r="4"/>
<circle style="fill:#E4C05C;" cx="39.75" cy="18" r="4"/>
<rect x="20.75" y="28" style="fill:#E4C05C;" width="16" height="2"/>
<circle style="fill:#E4C05C;" cx="17.75" cy="29" r="4"/>
<circle style="fill:#E4C05C;" cx="39.75" cy="29" r="4"/>
<rect x="19.75" y="39" style="fill:#E4C05C;" width="18" height="2"/>
<circle style="fill:#E4C05C;" cx="17.75" cy="40" r="4"/>
<circle style="fill:#E4C05C;" cx="39.75" cy="40" r="4"/>
<g>
</g>
<g>
</g>
<g>
</g>
<g>
</g>
<g>
</g>
<g>
</g>
<g>
</g>
<g>
</g>
<g>
</g>
<g>
</g>
<g>
</g>
<g>
</g>
<g>
</g>
<g>
</g>
<g>
</g>
</svg>
