<?xml version="1.0" encoding="iso-8859-1"?>
<!-- Generator: Adobe Illustrator 19.0.0, SVG Export Plug-In . SVG Version: 6.00 Build 0)  -->
<svg version="1.1" id="Capa_1" xmlns="http://www.w3.org/2000/svg" xmlns:xlink="http://www.w3.org/1999/xlink" x="0px" y="0px"
	 viewBox="0 0 58.856 58.856" style="enable-background:new 0 0 58.856 58.856;" xml:space="preserve">
<path style="fill:#7A3726;" d="M14.184,52.307c0.008,0.056,0.016,0.111,0.024,0.166c0.869,5.722,8.18,8.357,12.666,4.7
	c1.825-1.488,2.983-3.08,2.983-3.08s1.158,1.592,2.983,3.08c4.486,3.657,10.94,1.022,11.809-4.7
	c0.008-0.055,0.017-0.111,0.024-0.166c0.426-3.082-0.67-6.183-2.787-8.463L29.428,30.428L16.971,43.844
	C14.854,46.124,13.757,49.225,14.184,52.307z"/>
<path style="fill:#E4C05C;" d="M33.856,51h-3v-5.572c0-0.552-0.447-1-1-1s-1,0.448-1,1V51h-3c-0.553,0-1,0.448-1,1s0.447,1,1,1h3
	v1.428c0,0.233,0.093,0.438,0.226,0.609c0.495-0.561,0.774-0.944,0.774-0.944s0.279,0.382,0.774,0.943
	c0.134-0.17,0.226-0.375,0.226-0.608V53h3c0.553,0,1-0.448,1-1S34.409,51,33.856,51z"/>
<path style="fill:#7A3726;" d="M52.307,44.673c0.056-0.008,0.111-0.016,0.166-0.024c5.722-0.869,8.357-8.18,4.7-12.666
	C55.685,30.158,54.093,29,54.093,29s1.592-1.158,3.08-2.983c3.657-4.486,1.022-10.94-4.7-11.809
	c-0.055-0.008-0.111-0.017-0.166-0.024c-3.082-0.426-6.183,0.67-8.463,2.787L30.428,29.428l13.416,12.457
	C46.124,44.003,49.225,45.099,52.307,44.673z"/>
<path style="fill:#E4C05C;" d="M51,25v3h-5.572c-0.552,0-1,0.447-1,1s0.448,1,1,1H51v3c0,0.553,0.448,1,1,1s1-0.447,1-1v-3h1.428
	c0.233,0,0.438-0.093,0.609-0.226C54.476,29.28,54.093,29,54.093,29s0.382-0.279,0.943-0.774C54.866,28.093,54.661,28,54.428,28H53
	v-3c0-0.553-0.448-1-1-1S51,24.448,51,25z"/>
<path style="fill:#7A3726;" d="M6.549,44.673c-0.056-0.008-0.111-0.016-0.166-0.024c-5.722-0.869-8.357-8.18-4.7-12.666
	C3.171,30.158,4.763,29,4.763,29s-1.592-1.158-3.08-2.983c-3.657-4.486-1.022-10.94,4.7-11.809c0.055-0.008,0.111-0.017,0.166-0.024
	c3.082-0.426,6.183,0.67,8.463,2.787l13.416,12.457L15.013,41.885C12.732,44.003,9.632,45.099,6.549,44.673z"/>
<path style="fill:#E4C05C;" d="M7.889,25v3h5.572c0.552,0,1,0.447,1,1s-0.448,1-1,1H7.889v3c0,0.553-0.448,1-1,1s-1-0.447-1-1v-3
	H4.461c-0.233,0-0.438-0.093-0.609-0.226C4.413,29.28,4.796,29,4.796,29s-0.382-0.279-0.943-0.774C4.023,28.093,4.227,28,4.461,28
	h1.428v-3c0-0.553,0.448-1,1-1S7.889,24.448,7.889,25z"/>
<path style="fill:#7A3726;" d="M44.673,6.549c-0.008-0.056-0.016-0.111-0.024-0.166c-0.869-5.722-8.18-8.357-12.666-4.7
	C30.158,3.171,29,4.763,29,4.763s-1.158-1.592-2.983-3.08c-4.486-3.657-10.94-1.022-11.809,4.7
	c-0.008,0.055-0.017,0.111-0.024,0.166c-0.426,3.082,0.67,6.183,2.787,8.463l12.457,13.416l12.457-13.416
	C44.003,12.732,45.099,9.632,44.673,6.549z"/>
<path style="fill:#E4C05C;" d="M25,7.856h3v5.572c0,0.552,0.447,1,1,1s1-0.448,1-1V7.856h3c0.553,0,1-0.448,1-1s-0.447-1-1-1h-3
	V4.428c0-0.233-0.093-0.438-0.226-0.609C29.28,4.381,29,4.763,29,4.763s-0.279-0.382-0.774-0.943C28.093,3.99,28,4.195,28,4.428
	v1.428h-3c-0.553,0-1,0.448-1,1S24.448,7.856,25,7.856z"/>
<g>
</g>
<g>
</g>
<g>
</g>
<g>
</g>
<g>
</g>
<g>
</g>
<g>
</g>
<g>
</g>
<g>
</g>
<g>
</g>
<g>
</g>
<g>
</g>
<g>
</g>
<g>
</g>
<g>
</g>
</svg>
