<?xml version="1.0" encoding="iso-8859-1"?>
<!-- Generator: Adobe Illustrator 19.0.0, SVG Export Plug-In . SVG Version: 6.00 Build 0)  -->
<svg version="1.1" id="Capa_1" xmlns="http://www.w3.org/2000/svg" xmlns:xlink="http://www.w3.org/1999/xlink" x="0px" y="0px"
	 viewBox="0 0 51.375 51.375" style="enable-background:new 0 0 51.375 51.375;" xml:space="preserve">
<path style="fill:#804537;" d="M25.687,31.25c10.378,0,20.469,4.69,24.34,11.235c1.506,2.546-0.436,5.765-3.394,5.765h-0.165
	c-1.349,0-2.653-0.671-3.306-1.851c-2.029-3.667-9.637-7.149-17.475-7.149c-7.847,0-16.201,3.635-18.428,7.226
	c-0.712,1.147-2.031,1.774-3.381,1.774h0c-3.121,0-4.942-3.48-3.206-6.074C4.901,35.856,15.263,31.25,25.687,31.25z"/>
<path style="fill:#D9B24C;" d="M28.687,11.029V5.125c0-1.105-0.895-2-2-2s-2,0.895-2,2v5.812
	C26.021,10.866,27.358,10.895,28.687,11.029z"/>
<path style="fill:#D9B24C;" d="M42.3,16.255l2.645-4.13c0.596-0.93,0.325-2.167-0.605-2.763s-2.167-0.325-2.763,0.605l-2.596,4.052
	C40.142,14.68,41.252,15.426,42.3,16.255z"/>
<path style="fill:#D9B24C;" d="M9.687,16.125l-2.645-4.13c-0.596-0.93-0.325-2.167,0.605-2.763s2.167-0.325,2.763,0.605l2.596,4.052
	C11.845,14.549,10.735,15.295,9.687,16.125z"/>
<path style="fill:#D9B24C;" d="M16.753,11.85l-0.777-4.842c-0.175-1.091,0.567-2.117,1.658-2.292
	c1.091-0.175,2.117,0.567,2.292,1.658l0.763,4.751C19.36,11.266,18.044,11.507,16.753,11.85z"/>
<path style="fill:#D9B24C;" d="M36.687,12.125l0.777-4.842c0.175-1.091-0.567-2.117-1.658-2.292
	c-1.091-0.175-2.117,0.567-2.292,1.658L32.753,11.4C34.08,11.541,35.396,11.782,36.687,12.125z"/>
<path style="fill:#CB8252;" d="M25.687,39.25c-4.452,0-9.065,1.171-12.632,2.84c3.25,1.335,7.708,2.16,12.632,2.16
	c4.827,0,9.2-0.796,12.433-2.085C34.764,40.444,30.27,39.25,25.687,39.25z"/>
<path style="fill:#CB8252;" d="M8.212,17.107c0.016,0.028,0.039,0.056,0.055,0.085c4.944,4.653,11.261,7.008,17.596,7.059
	c2.701-0.019,5.45-0.466,7.99-1.188c3.8-1.188,7.38-3.268,10.413-6.241c0.052-0.071,0.101-0.145,0.157-0.212
	C34.305,6.524,17.952,6.5,7.8,16.533C7.954,16.709,8.096,16.897,8.212,17.107z"/>
<path style="fill:#D9B24C;" d="M26.375,14.255c-4.418,0-8,3.134-8,7c0,0.668,0.113,1.311,0.313,1.923
	c2.339,0.692,4.755,1.053,7.176,1.072c2.701-0.019,5.45-0.466,7.99-1.188c0.091-0.028,0.179-0.064,0.27-0.093
	c0.158-0.549,0.252-1.121,0.252-1.714C34.375,17.389,30.793,14.255,26.375,14.255z"/>
<path style="fill:#804537;" d="M25.687,31.25c-10.378,0-20.469-4.69-24.34-11.235c-1.506-2.546,0.436-5.765,3.394-5.765h0.165
	c1.349,0,2.653,0.671,3.306,1.851c2.029,3.667,9.637,7.149,17.475,7.149c7.847,0,16.201-3.635,18.428-7.226
	c0.712-1.147,2.031-1.774,3.381-1.774h0c3.121,0,4.942,3.48,3.206,6.074C46.474,26.644,36.111,31.25,25.687,31.25z"/>
<g>
</g>
<g>
</g>
<g>
</g>
<g>
</g>
<g>
</g>
<g>
</g>
<g>
</g>
<g>
</g>
<g>
</g>
<g>
</g>
<g>
</g>
<g>
</g>
<g>
</g>
<g>
</g>
<g>
</g>
</svg>
