<?xml version="1.0" encoding="iso-8859-1"?>
<!-- Generator: Adobe Illustrator 19.0.0, SVG Export Plug-In . SVG Version: 6.00 Build 0)  -->
<svg version="1.1" id="Capa_1" xmlns="http://www.w3.org/2000/svg" xmlns:xlink="http://www.w3.org/1999/xlink" x="0px" y="0px"
	 viewBox="0 0 58 58" style="enable-background:new 0 0 58 58;" xml:space="preserve">
<path style="fill:#559A92;" d="M29,40c-6.065,0-11-4.935-11-11s4.935-11,11-11s11,4.935,11,11S35.065,40,29,40z"/>
<circle style="fill:#D9B24C;" cx="29" cy="29" r="6"/>
<path style="fill:#556080;" d="M34,5c0-2.761-2.239-5-5-5s-5,2.239-5,5c0,1.643,0.804,3.089,2.027,4H26v9.426
	C26.955,18.155,27.959,18,29,18s2.045,0.155,3,0.426V9h-0.027C33.196,8.089,34,6.643,34,5z"/>
<path style="fill:#556080;" d="M24,53c0,2.761,2.239,5,5,5s5-2.239,5-5c0-1.643-0.804-3.089-2.027-4H32v-9.426
	C31.045,39.845,30.041,40,29,40s-2.045-0.155-3-0.426V49h0.027C24.804,49.911,24,51.357,24,53z"/>
<path style="fill:#556080;" d="M53,34c2.761,0,5-2.239,5-5s-2.239-5-5-5c-1.643,0-3.089,0.804-4,2.027V26h-9.426
	C39.845,26.955,40,27.959,40,29s-0.155,2.045-0.426,3H49v-0.027C49.911,33.196,51.357,34,53,34z"/>
<path style="fill:#556080;" d="M5,24c-2.761,0-5,2.239-5,5s2.239,5,5,5c1.643,0,3.089-0.804,4-2.027V32h9.426
	C18.155,31.045,18,30.041,18,29s0.155-2.045,0.426-3H9v0.027C8.089,24.804,6.643,24,5,24z"/>
<path style="fill:#556080;" d="M49.506,15.565c1.953-1.953,1.953-5.118,0-7.071s-5.118-1.953-7.071,0
	c-1.162,1.162-1.616,2.752-1.395,4.262l-0.019-0.019l-6.666,6.666c0.867,0.483,1.687,1.084,2.423,1.82
	c0.736,0.736,1.336,1.556,1.82,2.423l6.666-6.666l-0.019-0.019C46.754,17.181,48.344,16.727,49.506,15.565z"/>
<path style="fill:#556080;" d="M8.494,42.435c-1.953,1.953-1.953,5.118,0,7.071s5.118,1.953,7.071,0
	c1.162-1.162,1.616-2.752,1.395-4.262l0.019,0.019l6.666-6.666c-0.867-0.483-1.687-1.084-2.423-1.82
	c-0.736-0.736-1.336-1.556-1.82-2.423l-6.666,6.666l0.019,0.019C11.246,40.819,9.656,41.273,8.494,42.435z"/>
<path style="fill:#556080;" d="M42.435,49.506c1.953,1.953,5.118,1.953,7.071,0s1.953-5.118,0-7.071
	c-1.162-1.162-2.752-1.616-4.262-1.395l0.019-0.019l-6.666-6.666c-0.483,0.867-1.084,1.687-1.82,2.423
	c-0.736,0.736-1.556,1.336-2.423,1.82l6.666,6.666l0.019-0.019C40.819,46.754,41.273,48.344,42.435,49.506z"/>
<path style="fill:#556080;" d="M15.565,8.494c-1.953-1.953-5.118-1.953-7.071,0s-1.953,5.118,0,7.071
	c1.162,1.162,2.752,1.616,4.262,1.395l-0.019,0.019l6.666,6.666c0.483-0.867,1.084-1.687,1.82-2.423
	c0.736-0.736,1.556-1.336,2.423-1.82l-6.666-6.666l-0.019,0.019C17.181,11.246,16.727,9.656,15.565,8.494z"/>
<g>
</g>
<g>
</g>
<g>
</g>
<g>
</g>
<g>
</g>
<g>
</g>
<g>
</g>
<g>
</g>
<g>
</g>
<g>
</g>
<g>
</g>
<g>
</g>
<g>
</g>
<g>
</g>
<g>
</g>
</svg>
