<?xml version="1.0" encoding="iso-8859-1"?>
<!-- Generator: Adobe Illustrator 19.0.0, SVG Export Plug-In . SVG Version: 6.00 Build 0)  -->
<svg version="1.1" id="Capa_1" xmlns="http://www.w3.org/2000/svg" xmlns:xlink="http://www.w3.org/1999/xlink" x="0px" y="0px"
	 viewBox="0 0 55.245 55.245" style="enable-background:new 0 0 55.245 55.245;" xml:space="preserve">
<g>
	<path style="fill:#C3A97E;" d="M27.622,23.884l3.739,3.739l14.393-14.393c2.489,1.024,5.456,0.526,7.477-1.496
		c2.684-2.684,2.684-7.036,0-9.72c-2.684-2.684-7.036-2.684-9.72,0c-2.022,2.022-2.519,4.989-1.496,7.477L27.622,23.884z"/>
	<path style="fill:#C3A97E;" d="M27.622,31.361l-3.739-3.739L9.49,42.016c-2.489-1.024-5.456-0.526-7.477,1.496
		c-2.684,2.684-2.684,7.036,0,9.72c2.684,2.684,7.036,2.684,9.72,0c2.022-2.022,2.519-4.989,1.496-7.477L27.622,31.361z"/>
</g>
<path style="fill:#7F5B53;" d="M45.754,42.016L13.229,9.49c1.024-2.489,0.526-5.456-1.496-7.477c-2.684-2.684-7.036-2.684-9.72,0
	s-2.684,7.036,0,9.72c2.022,2.022,4.989,2.519,7.477,1.496l32.525,32.525c-1.024,2.489-0.526,5.456,1.496,7.477
	c2.684,2.684,7.036,2.684,9.72,0c2.684-2.684,2.684-7.036,0-9.72C51.21,41.49,48.243,40.992,45.754,42.016z"/>
<g>
</g>
<g>
</g>
<g>
</g>
<g>
</g>
<g>
</g>
<g>
</g>
<g>
</g>
<g>
</g>
<g>
</g>
<g>
</g>
<g>
</g>
<g>
</g>
<g>
</g>
<g>
</g>
<g>
</g>
</svg>
