<?xml version="1.0" encoding="iso-8859-1"?>
<!-- Generator: Adobe Illustrator 19.0.0, SVG Export Plug-In . SVG Version: 6.00 Build 0)  -->
<svg version="1.1" id="Capa_1" xmlns="http://www.w3.org/2000/svg" xmlns:xlink="http://www.w3.org/1999/xlink" x="0px" y="0px"
	 viewBox="0 0 58 58" style="enable-background:new 0 0 58 58;" xml:space="preserve">
<path style="fill:#7F5B53;" d="M0,0v58h58V0H0z M46,37.219C42.469,35.175,38.373,34,34,34c0,4.373,1.175,8.469,3.219,12H20.781
	C22.825,42.469,24,38.373,24,34c-4.373,0-8.469,1.175-12,3.219V20.781C15.531,22.825,19.627,24,24,24v0
	c0-4.373-1.175-8.469-3.219-12h16.438C35.175,15.531,34,19.627,34,24v0c4.373,0,8.469-1.175,12-3.219V37.219z"/>
<path style="fill:#804537;" d="M34,24L34,24L34,24C34,10.745,44.745,0,58,0h0v0C58,13.255,47.255,24,34,24z"/>
<path style="fill:#E4C05C;" d="M38.514,19.486c1.716-7.411,7.562-13.257,14.973-14.973C51.771,11.924,45.924,17.771,38.514,19.486z"
	/>
<path style="fill:#804537;" d="M0,58L0,58L0,58c0-13.255,10.745-24,24-24h0v0C24,47.255,13.255,58,0,58z"/>
<path style="fill:#E4C05C;" d="M4.514,53.486c1.716-7.411,7.562-13.257,14.973-14.973C17.771,45.924,11.924,51.771,4.514,53.486z"/>
<path style="fill:#804537;" d="M34,34L34,34L34,34c13.255,0,24,10.745,24,24v0h0C44.745,58,34,47.255,34,34z"/>
<path style="fill:#E4C05C;" d="M53.486,53.486c-7.411-1.716-13.257-7.562-14.973-14.973C45.924,40.229,51.771,46.076,53.486,53.486z
	"/>
<path style="fill:#804537;" d="M0,0L0,0L0,0c13.255,0,24,10.745,24,24v0h0C10.745,24,0,13.255,0,0z"/>
<path style="fill:#E4C05C;" d="M19.486,19.486C12.076,17.771,6.229,11.924,4.514,4.514C11.924,6.229,17.771,12.076,19.486,19.486z"
	/>
<g>
</g>
<g>
</g>
<g>
</g>
<g>
</g>
<g>
</g>
<g>
</g>
<g>
</g>
<g>
</g>
<g>
</g>
<g>
</g>
<g>
</g>
<g>
</g>
<g>
</g>
<g>
</g>
<g>
</g>
</svg>
