<?xml version="1.0" encoding="iso-8859-1"?>
<!-- Generator: Adobe Illustrator 19.0.0, SVG Export Plug-In . SVG Version: 6.00 Build 0)  -->
<svg version="1.1" id="Capa_1" xmlns="http://www.w3.org/2000/svg" xmlns:xlink="http://www.w3.org/1999/xlink" x="0px" y="0px"
	 viewBox="0 0 56 56" style="enable-background:new 0 0 56 56;" xml:space="preserve">
<path style="fill:#7F5B53;" d="M28,0C13.664,0,2,12.561,2,28c0,15.439,11.664,28,26,28s26-12.561,26-28C54,12.561,42.336,0,28,0z
	 M28,48c-9.925,0-18-8.972-18-20S18.075,8,28,8s18,8.972,18,20S37.925,48,28,48z"/>
<path style="fill:#E4C05C;" d="M28,40c-5.514,0-10-5.383-10-12s4.486-12,10-12s10,5.383,10,12S33.514,40,28,40z"/>
<g>
</g>
<g>
</g>
<g>
</g>
<g>
</g>
<g>
</g>
<g>
</g>
<g>
</g>
<g>
</g>
<g>
</g>
<g>
</g>
<g>
</g>
<g>
</g>
<g>
</g>
<g>
</g>
<g>
</g>
</svg>
