<?xml version="1.0" encoding="iso-8859-1"?>
<!-- Generator: Adobe Illustrator 19.0.0, SVG Export Plug-In . SVG Version: 6.00 Build 0)  -->
<svg version="1.1" id="Capa_1" xmlns="http://www.w3.org/2000/svg" xmlns:xlink="http://www.w3.org/1999/xlink" x="0px" y="0px"
	 viewBox="0 0 58 58" style="enable-background:new 0 0 58 58;" xml:space="preserve">
<path style="fill:#559A92;" d="M40.25,0c-4.385,0-8.511,3.281-11.412,7.859c-0.042,0.066-0.136,0.065-0.177-0.001
	C25.771,3.28,22.135,0,17.75,0C8.344,0,1.25,12.467,1.25,29s7.094,29,16.5,29c4.385,0,8.021-3.28,10.911-7.859
	c0.042-0.066,0.135-0.066,0.177-0.001C31.739,54.719,35.865,58,40.25,58c9.406,0,16.5-12.467,16.5-29S49.656,0,40.25,0z"/>
<path style="fill:#81CCB8;" d="M40.25,4c-4.948,0-9.474,5.658-11.5,14c-2.026-8.342-6.052-14-11-14c-6.904,0-12.5,11.193-12.5,25
	s5.596,25,12.5,25c4.948,0,8.974-5.658,11-14c2.026,8.342,6.552,14,11.5,14c6.904,0,12.5-11.193,12.5-25S47.154,4,40.25,4z"/>
<path style="fill:#556080;" d="M21.655,44.555c0.004-0.023,0.007-0.046,0.01-0.069c0.112-0.818-0.383-1.604-1.165-1.869
	c-1.735-0.588-4.561-2.149-1.85-5.67c0.92-1.195,1.73-2.468,2.38-3.83c0.748-1.567,1.436-2.578,1.436-4.211
	c0-1.632-0.688-2.644-1.436-4.211c-0.65-1.361-1.46-2.634-2.38-3.83c-2.711-3.521,0.115-5.082,1.85-5.67
	c0.782-0.265,1.277-1.051,1.165-1.869c-0.003-0.023-0.006-0.046-0.01-0.069c-0.48-3.181-4.511-4.358-6.748-2.046
	c-1.46,1.509-3.015,3.835-3.158,6.979c0,0,0.33,4.294,2.985,8.306c0.966,1.46,0.966,3.361,0,4.821
	c-2.655,4.012-2.985,8.306-2.985,8.306c0.143,3.144,1.698,5.47,3.158,6.979C17.144,48.913,21.175,47.736,21.655,44.555z"/>
<path style="fill:#556080;" d="M36.561,44.555c-0.004-0.023-0.007-0.046-0.01-0.069c-0.112-0.818,0.383-1.604,1.165-1.869
	c1.735-0.588,4.561-2.149,1.85-5.67c-0.92-1.195-1.73-2.468-2.38-3.83c-0.748-1.567-1.436-2.578-1.436-4.211
	c0-1.632,0.688-2.644,1.436-4.211c0.65-1.361,1.46-2.634,2.38-3.83c2.711-3.521-0.115-5.082-1.85-5.67
	c-0.782-0.265-1.277-1.051-1.165-1.869c0.003-0.023,0.006-0.046,0.01-0.069c0.48-3.181,4.511-4.358,6.748-2.046
	c1.46,1.509,3.015,3.835,3.158,6.979c0,0-0.33,4.294-2.985,8.306c-0.966,1.46-0.966,3.361,0,4.821
	c2.655,4.012,2.985,8.306,2.985,8.306c-0.143,3.144-1.698,5.47-3.158,6.979C41.072,48.913,37.041,47.736,36.561,44.555z"/>
<g>
</g>
<g>
</g>
<g>
</g>
<g>
</g>
<g>
</g>
<g>
</g>
<g>
</g>
<g>
</g>
<g>
</g>
<g>
</g>
<g>
</g>
<g>
</g>
<g>
</g>
<g>
</g>
<g>
</g>
</svg>
