<?xml version="1.0" encoding="iso-8859-1"?>
<!-- Generator: Adobe Illustrator 19.0.0, SVG Export Plug-In . SVG Version: 6.00 Build 0)  -->
<svg version="1.1" id="Capa_1" xmlns="http://www.w3.org/2000/svg" xmlns:xlink="http://www.w3.org/1999/xlink" x="0px" y="0px"
	 viewBox="0 0 58 58" style="enable-background:new 0 0 58 58;" xml:space="preserve">
<g>
	<path style="fill:#CBB292;" d="M13,35c-3.3,0-6-2.7-6-6s2.7-6,6-6h3h7h12v-7H13C5.82,16,0,21.82,0,29s5.82,13,13,13h3v-7H13z"/>
	<path style="fill:#CBB292;" d="M45,16h-3v7h3c3.3,0,6,2.7,6,6s-2.7,6-6,6h-3h-7H23v7h22c7.18,0,13-5.82,13-13S52.18,16,45,16z"/>
</g>
<g>
	<path style="fill:#804537;" d="M35,45c0,3.3-2.7,6-6,6s-6-2.7-6-6v-3v-7V23h-7v22c0,7.18,5.82,13,13,13s13-5.82,13-13v-3h-7V45z"/>
	<path style="fill:#804537;" d="M29,0c-7.18,0-13,5.82-13,13v3h7v-3c0-3.3,2.7-6,6-6s6,2.7,6,6v3v7v12h7V13C42,5.82,36.18,0,29,0z"
		/>
</g>
<g>
</g>
<g>
</g>
<g>
</g>
<g>
</g>
<g>
</g>
<g>
</g>
<g>
</g>
<g>
</g>
<g>
</g>
<g>
</g>
<g>
</g>
<g>
</g>
<g>
</g>
<g>
</g>
<g>
</g>
</svg>
