<?xml version="1.0" encoding="iso-8859-1"?>
<!-- Generator: Adobe Illustrator 19.0.0, SVG Export Plug-In . SVG Version: 6.00 Build 0)  -->
<svg version="1.1" id="Capa_1" xmlns="http://www.w3.org/2000/svg" xmlns:xlink="http://www.w3.org/1999/xlink" x="0px" y="0px"
	 viewBox="0 0 56 56" style="enable-background:new 0 0 56 56;" xml:space="preserve">
<path style="fill:#804537;" d="M28,0C15.042,0,4.5,12.561,4.5,28c0,15.439,10.542,28,23.5,28s23.5-12.561,23.5-28
	C51.5,12.561,40.958,0,28,0z M28,50c-9.389,0-17-9.626-17-21.5C11,16.626,18.611,7,28,7s17,9.626,17,21.5C45,40.374,37.389,50,28,50
	z"/>
<path style="fill:#804537;" d="M33.347,35H22.653C21.74,35,21,34.26,21,33.347v-9.694C21,22.74,21.74,22,22.653,22h10.694
	C34.26,22,35,22.74,35,23.653v9.694C35,34.26,34.26,35,33.347,35z"/>
<g>
	<path style="fill:#CB8252;" d="M29.862,17H29V7h-2v10h-0.862C25.51,17,25,17.51,25,18.138V22h6v-3.862C31,17.51,30.49,17,29.862,17
		z"/>
	<path style="fill:#CB8252;" d="M25,38.862C25,39.49,25.51,40,26.138,40H27v10h2V40h0.862C30.49,40,31,39.49,31,38.862V35h-6V38.862
		z"/>
	<path style="fill:#CB8252;" d="M16,26.138V28h-5v2h5v0.862C16,31.49,16.51,32,17.138,32H21v-7h-3.862C16.51,25,16,25.51,16,26.138z
		"/>
	<path style="fill:#CB8252;" d="M40,28v-1.862C40,25.51,39.49,25,38.862,25H35v7h3.862C39.49,32,40,31.49,40,30.862V30h5v-2H40z"/>
</g>
<g>
</g>
<g>
</g>
<g>
</g>
<g>
</g>
<g>
</g>
<g>
</g>
<g>
</g>
<g>
</g>
<g>
</g>
<g>
</g>
<g>
</g>
<g>
</g>
<g>
</g>
<g>
</g>
<g>
</g>
</svg>
