<?xml version="1.0" encoding="iso-8859-1"?>
<!-- Generator: Adobe Illustrator 19.0.0, SVG Export Plug-In . SVG Version: 6.00 Build 0)  -->
<svg version="1.1" id="Capa_1" xmlns="http://www.w3.org/2000/svg" xmlns:xlink="http://www.w3.org/1999/xlink" x="0px" y="0px"
	 viewBox="0 0 58 58" style="enable-background:new 0 0 58 58;" xml:space="preserve">
<path style="fill:#CBB292;" d="M57.919,46.106l-15-35c-0.019-0.044-0.054-0.074-0.079-0.114c-0.041-0.069-0.078-0.139-0.136-0.197
	c-0.06-0.06-0.133-0.099-0.204-0.141c-0.038-0.022-0.065-0.056-0.106-0.073c-0.004-0.002-0.007-0.001-0.011-0.002
	c-0.089-0.037-0.185-0.049-0.281-0.059c-0.034-0.003-0.066-0.019-0.1-0.019c-0.05,0-0.099,0.021-0.15,0.028
	c-0.079,0.012-0.159,0.019-0.233,0.049c-0.004,0.002-0.008,0.001-0.012,0.003c-0.045,0.019-0.075,0.055-0.116,0.08
	c-0.068,0.041-0.138,0.078-0.195,0.135c-0.058,0.057-0.094,0.128-0.136,0.197c-0.024,0.04-0.06,0.07-0.079,0.114L39,15.962
	l-2.081-4.856c-0.019-0.043-0.054-0.073-0.077-0.112c-0.042-0.07-0.079-0.141-0.138-0.199c-0.057-0.057-0.128-0.094-0.196-0.135
	c-0.04-0.024-0.07-0.06-0.114-0.079c-0.004-0.002-0.008-0.001-0.012-0.003c-0.088-0.036-0.182-0.047-0.276-0.058
	c-0.035-0.004-0.069-0.02-0.104-0.02c-0.05,0-0.1,0.021-0.15,0.029c-0.079,0.012-0.159,0.019-0.232,0.049
	c-0.004,0.002-0.008,0.001-0.012,0.003c-0.043,0.019-0.072,0.053-0.112,0.077c-0.07,0.042-0.141,0.079-0.2,0.138
	c-0.057,0.057-0.093,0.127-0.135,0.195c-0.025,0.04-0.06,0.071-0.08,0.115L33,15.962l-2.081-4.856
	c-0.019-0.044-0.054-0.073-0.078-0.113c-0.042-0.069-0.079-0.14-0.137-0.198c-0.059-0.059-0.13-0.096-0.2-0.138
	c-0.039-0.023-0.067-0.058-0.11-0.076c-0.004-0.002-0.008-0.001-0.012-0.002c-0.089-0.037-0.184-0.048-0.28-0.059
	c-0.034-0.003-0.067-0.019-0.101-0.019c-0.05,0-0.099,0.021-0.15,0.029c-0.079,0.012-0.159,0.019-0.232,0.049
	c-0.004,0.002-0.008,0.001-0.012,0.003c-0.045,0.019-0.076,0.056-0.117,0.081c-0.067,0.041-0.137,0.077-0.193,0.133
	c-0.058,0.058-0.096,0.129-0.137,0.199c-0.024,0.039-0.059,0.069-0.078,0.112L21.5,28.795l-7.581-17.689
	c-0.218-0.508-0.81-0.744-1.313-0.525c-0.508,0.217-0.743,0.805-0.525,1.313l8.331,19.439L18.5,35.795L7.919,11.106
	c-0.218-0.508-0.81-0.744-1.313-0.525c-0.508,0.217-0.743,0.805-0.525,1.313l11.331,26.439L15.5,42.795L1.919,11.106
	c-0.218-0.508-0.81-0.744-1.313-0.525c-0.508,0.217-0.743,0.805-0.525,1.313l14.331,33.439l-0.331,0.773
	c-0.218,0.508,0.018,1.096,0.525,1.313c0.128,0.055,0.262,0.082,0.394,0.082c0.177,0,0.348-0.053,0.5-0.141
	c0.152,0.088,0.323,0.141,0.5,0.141c0.132,0,0.266-0.026,0.394-0.082c0.508-0.217,0.743-0.805,0.525-1.313l-0.331-0.773l1.912-4.462
	l1.912,4.462l-0.331,0.773c-0.218,0.508,0.018,1.096,0.525,1.313c0.128,0.055,0.262,0.082,0.394,0.082
	c0.177,0,0.348-0.053,0.5-0.141c0.152,0.088,0.323,0.141,0.5,0.141c0.132,0,0.266-0.026,0.394-0.082
	c0.508-0.217,0.743-0.805,0.525-1.313l-0.331-0.773l1.912-4.462l1.912,4.462l-0.331,0.773c-0.218,0.508,0.018,1.096,0.525,1.313
	c0.128,0.055,0.262,0.082,0.394,0.082c0.177,0,0.348-0.053,0.5-0.141c0.152,0.088,0.323,0.141,0.5,0.141
	c0.132,0,0.266-0.026,0.394-0.082c0.508-0.217,0.743-0.805,0.525-1.313l-0.331-0.773L36,28.038l8.081,18.856
	c0.162,0.379,0.531,0.606,0.919,0.606c0.132,0,0.266-0.026,0.394-0.082c0.508-0.217,0.743-0.805,0.525-1.313L37.088,25.5L39,21.038
	l11.081,25.856c0.162,0.379,0.531,0.606,0.919,0.606c0.132,0,0.266-0.026,0.394-0.082c0.508-0.217,0.743-0.805,0.525-1.313
	L40.088,18.5L42,14.038l14.081,32.856c0.162,0.379,0.531,0.606,0.919,0.606c0.132,0,0.266-0.026,0.394-0.082
	C57.902,47.202,58.137,46.614,57.919,46.106z M30,14.038l1.912,4.462L24.5,35.795l-1.912-4.462L30,14.038z M21.5,42.795
	l-1.912-4.462l1.912-4.462l1.912,4.462L21.5,42.795z M27.5,42.795l-1.912-4.462L33,21.038l1.912,4.462L27.5,42.795z M36,22.962
	L34.088,18.5L36,14.038l1.912,4.462L36,22.962z"/>
<rect x="0" y="7.5" style="fill:#804537;" width="58" height="4"/>
<rect x="0" y="46.5" style="fill:#804537;" width="58" height="4"/>
<g>
</g>
<g>
</g>
<g>
</g>
<g>
</g>
<g>
</g>
<g>
</g>
<g>
</g>
<g>
</g>
<g>
</g>
<g>
</g>
<g>
</g>
<g>
</g>
<g>
</g>
<g>
</g>
<g>
</g>
</svg>
