<?xml version="1.0" encoding="iso-8859-1"?>
<!-- Generator: Adobe Illustrator 19.0.0, SVG Export Plug-In . SVG Version: 6.00 Build 0)  -->
<svg version="1.1" id="Capa_1" xmlns="http://www.w3.org/2000/svg" xmlns:xlink="http://www.w3.org/1999/xlink" x="0px" y="0px"
	 viewBox="0 0 49.878 49.878" style="enable-background:new 0 0 49.878 49.878;" xml:space="preserve">
<path style="fill:#AF8066;" d="M46.439,36.878h-8.5v-34c0-1.381-1.119-2.5-2.5-2.5s-2.5,1.119-2.5,2.5v34H15.642l1.64-1.695
	c3.939-4.072,8.769-10.505,9.399-18.017c0.033-0.342,0.754-8.423-3.725-13.401C20.773,1.338,17.692,0.036,14.037,0
	C4.722,0,1.41,7.188,0.959,10.989c-0.191,1.618,0.978,3.105,2.599,3.312c0.131,0.019,0.261,0.026,0.39,0.026
	c1.485,0,2.761-1.12,2.967-2.605C7.101,10.38,8.162,6,14.007,6c1.982,0.02,3.405,0.581,4.478,1.765
	c2.683,2.963,2.226,8.802,2.221,8.861C19.755,27.937,7.905,35.974,7.324,36.349c-1.354,0.864-1.832,2.715-0.908,4.155
	c0.574,0.894,1.619,1.374,2.681,1.374h23.841v5.5c0,1.381,1.119,2.5,2.5,2.5s2.5-1.119,2.5-2.5v-5.5h8.5c1.381,0,2.5-1.119,2.5-2.5
	C48.939,37.997,47.82,36.878,46.439,36.878z"/>
<g>
</g>
<g>
</g>
<g>
</g>
<g>
</g>
<g>
</g>
<g>
</g>
<g>
</g>
<g>
</g>
<g>
</g>
<g>
</g>
<g>
</g>
<g>
</g>
<g>
</g>
<g>
</g>
<g>
</g>
</svg>
