<?xml version="1.0" encoding="iso-8859-1"?>
<!-- Generator: Adobe Illustrator 19.0.0, SVG Export Plug-In . SVG Version: 6.00 Build 0)  -->
<svg version="1.1" id="Capa_1" xmlns="http://www.w3.org/2000/svg" xmlns:xlink="http://www.w3.org/1999/xlink" x="0px" y="0px"
	 viewBox="0 0 57.88 57.88" style="enable-background:new 0 0 57.88 57.88;" xml:space="preserve">
<path style="fill:#804537;" d="M20.041,28.865l8.899-6.611l-10.214-7.588c-0.196-0.196-0.514-0.196-0.71,0L0.374,28.036
	c-0.499,0.499-0.499,1.308,0,1.808l17.642,13.37c0.196,0.196,0.514,0.196,0.71,0l10.214-7.588l-8.899-6.611
	C19.991,28.978,19.991,28.903,20.041,28.865z"/>
<path style="fill:#804537;" d="M37.839,28.865l-8.899-6.611l10.214-7.588c0.196-0.196,0.514-0.196,0.71,0l17.642,13.37
	c0.499,0.499,0.499,1.308,0,1.808l-17.642,13.37c-0.196,0.196-0.514,0.196-0.71,0L28.94,35.626l8.899-6.611
	C37.89,28.978,37.89,28.903,37.839,28.865z"/>
<path style="fill:#CBB292;" d="M39.792,20.251c-0.156-0.156-0.41-0.156-0.566,0l-7.026,4.425l5.663,4.207
	c0.038,0.029,0.038,0.086,0,0.115l-5.662,4.206l7.026,4.425c0.156,0.156,0.41,0.156,0.566,0l12.678-8.406
	c0.156-0.156,0.156-0.41,0-0.566L39.792,20.251z"/>
<path style="fill:#CBB292;" d="M25.68,33.204l-5.663-4.207c-0.038-0.029-0.038-0.086,0-0.115l5.662-4.206l-7.026-4.425
	c-0.156-0.156-0.41-0.156-0.566,0L5.41,28.657c-0.156,0.156-0.156,0.41,0,0.566l12.678,8.406c0.156,0.156,0.41,0.156,0.566,0
	L25.68,33.204z"/>
<g>
</g>
<g>
</g>
<g>
</g>
<g>
</g>
<g>
</g>
<g>
</g>
<g>
</g>
<g>
</g>
<g>
</g>
<g>
</g>
<g>
</g>
<g>
</g>
<g>
</g>
<g>
</g>
<g>
</g>
</svg>
