<?xml version="1.0" encoding="iso-8859-1"?>
<!-- Generator: Adobe Illustrator 19.0.0, SVG Export Plug-In . SVG Version: 6.00 Build 0)  -->
<svg version="1.1" id="Capa_1" xmlns="http://www.w3.org/2000/svg" xmlns:xlink="http://www.w3.org/1999/xlink" x="0px" y="0px"
	 viewBox="0 0 58 58" style="enable-background:new 0 0 58 58;" xml:space="preserve">
<polygon style="fill:#556080;" points="16,37 16,44 0,44 0,49 16,49 16,53 0,53 0,58 16,58 22,58 22,37 "/>
<polygon style="fill:#556080;" points="42,37 42,44 58,44 58,49 42,49 42,53 58,53 58,58 42,58 36,58 36,37 "/>
<polygon style="fill:#556080;" points="42,22 42,14 58,14 58,9 42,9 42,5 58,5 58,0 42,0 36,0 36,22 "/>
<polygon style="fill:#556080;" points="16,22 16,14 0,14 0,9 16,9 16,5 0,5 0,0 16,0 22,0 22,22 "/>
<rect x="0" y="22" style="fill:#559A92;" width="58" height="15"/>
<rect x="20" y="22" style="fill:#D9B24C;" width="18" height="15"/>
<rect x="26" y="0" style="fill:#556080;" width="6" height="22"/>
<rect x="26" y="37" style="fill:#556080;" width="6" height="21"/>
<g>
	<line style="fill:#D9B24C;" x1="10" y1="22" x2="10" y2="37"/>
	<rect x="9" y="22" style="fill:#D9B24C;" width="2" height="15"/>
</g>
<g>
	<line style="fill:#D9B24C;" x1="48" y1="22" x2="48" y2="37"/>
	<rect x="47" y="22" style="fill:#D9B24C;" width="2" height="15"/>
</g>
<g>
</g>
<g>
</g>
<g>
</g>
<g>
</g>
<g>
</g>
<g>
</g>
<g>
</g>
<g>
</g>
<g>
</g>
<g>
</g>
<g>
</g>
<g>
</g>
<g>
</g>
<g>
</g>
<g>
</g>
</svg>
