<?xml version="1.0" encoding="iso-8859-1"?>
<!-- Generator: Adobe Illustrator 19.0.0, SVG Export Plug-In . SVG Version: 6.00 Build 0)  -->
<svg version="1.1" id="Capa_1" xmlns="http://www.w3.org/2000/svg" xmlns:xlink="http://www.w3.org/1999/xlink" x="0px" y="0px"
	 viewBox="0 0 58 58" style="enable-background:new 0 0 58 58;" xml:space="preserve">
<path style="fill:#26B99A;" d="M46.769,47c-0.933,0-1.737,0.648-1.944,1.558C44.115,51.67,41.324,54,38,54
	c-3.859,0-6.954-3.141-6.954-7L31,40c10.258-1.023,18.259-9.929,17.994-20.51C48.735,9.179,40.398,0.583,30.099,0.03
	C18.574-0.59,9,8.608,9,20c0,10.351,7.91,18.99,18,20l0.046,7c0,3.859-3.186,7-7.046,7c-3.324,0-6.115-2.33-6.825-5.442
	C12.967,47.648,12.164,47,11.231,47c-1.294,0-2.241,1.209-1.951,2.47C10.404,54.35,14.784,58,20,58c3.499,0,6.616-1.916,8.632-4.503
	c0.19-0.244,0.546-0.244,0.736,0C31.384,56.084,34.501,58,38,58c5.216,0,9.596-3.65,10.72-8.53C49.011,48.209,48.064,47,46.769,47z"
	/>
<circle style="fill:#14A085;" cx="29" cy="20" r="16"/>
<g>
</g>
<g>
</g>
<g>
</g>
<g>
</g>
<g>
</g>
<g>
</g>
<g>
</g>
<g>
</g>
<g>
</g>
<g>
</g>
<g>
</g>
<g>
</g>
<g>
</g>
<g>
</g>
<g>
</g>
</svg>
