<?xml version="1.0" encoding="iso-8859-1"?>
<!-- Generator: Adobe Illustrator 19.0.0, SVG Export Plug-In . SVG Version: 6.00 Build 0)  -->
<svg version="1.1" id="Capa_1" xmlns="http://www.w3.org/2000/svg" xmlns:xlink="http://www.w3.org/1999/xlink" x="0px" y="0px"
	 viewBox="0 0 58 58" style="enable-background:new 0 0 58 58;" xml:space="preserve">
<polygon style="fill:#556080;" points="53,0 53,16 47,16 47,0 42,0 42,16 37,16 37,0 32,0 32,16 27,16 27,0 22,0 22,16 16,16 16,0 
	11,0 11,16 5,16 5,0 0,0 0,16 0,22 0,27 8,27 8,22 8,20 50,20 50,22 50,27 58,27 58,22 58,16 58,0 "/>
<polygon style="fill:#556080;" points="50,31 50,36 50,38 8,38 8,36 8,31 0,31 0,36 0,42 0,58 5,58 5,42 11,42 11,58 16,58 16,42 
	21,42 21,58 26,58 26,42 31,42 31,58 36,58 36,42 42,42 42,58 47,58 47,42 53,42 53,58 58,58 58,42 58,36 58,31 "/>
<rect x="8" y="20" style="fill:#559A92;" width="42" height="18"/>
<polygon style="fill:#D9B24C;" points="8,20 8,21.088 47.462,38 50,38 50,36.912 10.538,20 "/>
<polygon style="fill:#D9B24C;" points="8,36.912 8,38 10.538,38 50,21.088 50,20 47.462,20 "/>
<g>
</g>
<g>
</g>
<g>
</g>
<g>
</g>
<g>
</g>
<g>
</g>
<g>
</g>
<g>
</g>
<g>
</g>
<g>
</g>
<g>
</g>
<g>
</g>
<g>
</g>
<g>
</g>
<g>
</g>
</svg>
