<?xml version="1.0" encoding="iso-8859-1"?>
<!-- Generator: Adobe Illustrator 19.0.0, SVG Export Plug-In . SVG Version: 6.00 Build 0)  -->
<svg version="1.1" id="Capa_1" xmlns="http://www.w3.org/2000/svg" xmlns:xlink="http://www.w3.org/1999/xlink" x="0px" y="0px"
	 viewBox="0 0 50 50" style="enable-background:new 0 0 50 50;" xml:space="preserve">
<path style="fill:#7F5B53;" d="M42.753,35.997c-2.689-0.06-5.14-1.092-7.02-2.757c-1.263-1.118-0.984-3.16,0.521-3.922
	c8.008-4.054,13.553-12.29,13.741-21.818c0.074-3.728-2.565-7.095-6.275-7.465C39.53-0.382,36,2.896,36,7
	c0,2.775-1.035,5.308-2.738,7.243c-1.123,1.276-3.176,1.019-3.943-0.498C25.264,5.738,17.028,0.193,7.501,0.005
	C3.773-0.069,0.406,2.57,0.036,6.28C-0.382,10.47,2.896,14,7,14c2.775,0,5.309,1.035,7.243,2.738
	c1.276,1.123,1.019,3.176-0.498,3.943C5.738,24.736,0.193,32.972,0.005,42.499c-0.074,3.728,2.565,7.095,6.275,7.465
	C10.47,50.382,14,47.104,14,43c0-2.775,1.036-5.309,2.738-7.243c1.119-1.271,3.173-1.027,3.937,0.485C24.797,44.396,33.256,50,43,50
	c4.022,0,7.251-3.391,6.985-7.469C49.742,38.816,46.474,36.08,42.753,35.997z"/>
<path style="fill:#E4C05C;" d="M43,42c-9.054,0-16.456-7.12-16.952-16.053C36.036,25.398,44,17.123,44,7c0-0.552-0.448-1-1-1
	s-1,0.448-1,1c0,9.054-7.12,16.456-16.053,16.952C25.398,13.964,17.123,6,7,6C6.448,6,6,6.448,6,7s0.448,1,1,1
	c9.054,0,16.456,7.12,16.952,16.053C13.964,24.602,6,32.877,6,43c0,0.552,0.448,1,1,1s1-0.448,1-1
	c0-9.054,7.12-16.456,16.053-16.952C24.602,36.036,32.877,44,43,44c0.552,0,1-0.448,1-1S43.552,42,43,42z"/>
<g>
</g>
<g>
</g>
<g>
</g>
<g>
</g>
<g>
</g>
<g>
</g>
<g>
</g>
<g>
</g>
<g>
</g>
<g>
</g>
<g>
</g>
<g>
</g>
<g>
</g>
<g>
</g>
<g>
</g>
</svg>
