<?xml version="1.0" encoding="iso-8859-1"?>
<!-- Generator: Adobe Illustrator 19.0.0, SVG Export Plug-In . SVG Version: 6.00 Build 0)  -->
<svg version="1.1" id="Capa_1" xmlns="http://www.w3.org/2000/svg" xmlns:xlink="http://www.w3.org/1999/xlink" x="0px" y="0px"
	 viewBox="0 0 55.75 55.75" style="enable-background:new 0 0 55.75 55.75;" xml:space="preserve">
<g>
	<path style="fill:#C3A97E;" d="M14.505,27.1c1.366,0,2.684-0.208,3.928-0.585c0.563-3.939,3.526-7.091,7.362-7.945v0.18h4v-0.213
		c3.913,0.801,6.951,3.984,7.522,7.978c1.244,0.378,2.562,0.585,3.928,0.585c7.471,0,13.55-6.079,13.55-13.55
		C54.795,6.079,48.716,0,41.245,0C34.49,0,28.89,4.974,27.875,11.449C26.86,4.974,21.26,0,14.505,0C7.034,0,0.955,6.079,0.955,13.55
		C0.955,21.021,7.034,27.1,14.505,27.1z"/>
	<path style="fill:#C3A97E;" d="M41.245,28.65c-1.366,0-2.684,0.208-3.928,0.585c-0.571,3.994-3.609,7.177-7.522,7.978V36.75h-4
		v0.43c-3.836-0.854-6.799-4.005-7.362-7.945c-1.244-0.378-2.562-0.585-3.928-0.585c-7.471,0-13.55,6.079-13.55,13.55
		c0,7.471,6.079,13.55,13.55,13.55c6.755,0,12.355-4.974,13.37-11.449c1.015,6.474,6.615,11.449,13.37,11.449
		c7.471,0,13.55-6.079,13.55-13.55C54.795,34.729,48.716,28.65,41.245,28.65z"/>
</g>
<circle style="fill:#804537;" cx="14.505" cy="13.55" r="9.55"/>
<circle style="fill:#804537;" cx="41.245" cy="13.55" r="9.55"/>
<circle style="fill:#804537;" cx="14.505" cy="42.2" r="9.55"/>
<circle style="fill:#804537;" cx="41.245" cy="42.2" r="9.55"/>
<circle style="fill:#804537;" cx="27.875" cy="27.875" r="9.55"/>
<g>
</g>
<g>
</g>
<g>
</g>
<g>
</g>
<g>
</g>
<g>
</g>
<g>
</g>
<g>
</g>
<g>
</g>
<g>
</g>
<g>
</g>
<g>
</g>
<g>
</g>
<g>
</g>
<g>
</g>
</svg>
