<?xml version="1.0" encoding="iso-8859-1"?>
<!-- Generator: Adobe Illustrator 19.0.0, SVG Export Plug-In . SVG Version: 6.00 Build 0)  -->
<svg version="1.1" id="Capa_1" xmlns="http://www.w3.org/2000/svg" xmlns:xlink="http://www.w3.org/1999/xlink" x="0px" y="0px"
	 viewBox="0 0 48.042 48.042" style="enable-background:new 0 0 48.042 48.042;" xml:space="preserve">
<path style="fill:#EEAF4B;" d="M45.042,0.021h-12c-1.657,0-3,1.343-3,3s1.343,3,3,3h4.716l-2.908,2.908l-2.828,2.828
	c-0.059,0.059-0.103,0.128-0.156,0.191c-7.828-5.792-18.913-5.163-26.007,1.93c-7.81,7.81-7.81,20.474,0,28.284
	c7.81,7.811,20.474,7.811,28.284,0c7.094-7.094,7.722-18.179,1.93-26.007c0.063-0.053,0.131-0.096,0.191-0.156l2.828-2.828
	l2.95-2.95v4.799c0,1.657,1.343,3,3,3s3-1.343,3-3v-12C48.042,1.364,46.699,0.021,45.042,0.021z"/>
<path style="fill:#DC9628;" d="M30.607,17.414c5.849,5.849,5.849,15.365,0,21.213s-15.365,5.849-21.213,0s-5.849-15.365,0-21.213
	S24.758,11.566,30.607,17.414z"/>
<g>
</g>
<g>
</g>
<g>
</g>
<g>
</g>
<g>
</g>
<g>
</g>
<g>
</g>
<g>
</g>
<g>
</g>
<g>
</g>
<g>
</g>
<g>
</g>
<g>
</g>
<g>
</g>
<g>
</g>
</svg>
