<?xml version="1.0" encoding="iso-8859-1"?>
<!-- Generator: Adobe Illustrator 19.0.0, SVG Export Plug-In . SVG Version: 6.00 Build 0)  -->
<svg version="1.1" id="Capa_1" xmlns="http://www.w3.org/2000/svg" xmlns:xlink="http://www.w3.org/1999/xlink" x="0px" y="0px"
	 viewBox="0 0 56 56" style="enable-background:new 0 0 56 56;" xml:space="preserve">
<path style="fill:#556080;" d="M28,56c-1.654,0-3-1.346-3-3v-3h-4c-1.654,0-3-1.346-3-3s1.346-3,3-3h4v-2.215
	C14.675,40.317,7,31.539,7,21c0-4.528,1.479-8.958,4.184-12.573L8.021,5.264c-1.17-1.17-1.17-3.072,0-4.242
	c0.566-0.566,1.319-0.879,2.121-0.879s1.555,0.313,2.122,0.879l3.163,3.163C19.041,1.48,23.471,0,28,0s8.959,1.48,12.574,4.185
	l2.577-2.577c0.567-0.566,1.32-0.879,2.121-0.879s1.555,0.313,2.122,0.879c0.567,0.567,0.878,1.32,0.878,2.121
	c0,0.802-0.313,1.556-0.879,2.122l-2.576,2.576C47.521,12.042,49,16.472,49,21c0,10.539-7.675,19.317-18,20.785V44h4
	c1.654,0,3,1.346,3,3s-1.346,3-3,3h-4v3C31,54.654,29.654,56,28,56z"/>
<path style="fill:#8697CB;" d="M28,37c-8.823,0-16-7.177-16-16S19.177,5,28,5s16,7.177,16,16S36.823,37,28,37z"/>
<g>
</g>
<g>
</g>
<g>
</g>
<g>
</g>
<g>
</g>
<g>
</g>
<g>
</g>
<g>
</g>
<g>
</g>
<g>
</g>
<g>
</g>
<g>
</g>
<g>
</g>
<g>
</g>
<g>
</g>
</svg>
