<?xml version="1.0" encoding="iso-8859-1"?>
<!-- Generator: Adobe Illustrator 19.0.0, SVG Export Plug-In . SVG Version: 6.00 Build 0)  -->
<svg version="1.1" id="Capa_1" xmlns="http://www.w3.org/2000/svg" xmlns:xlink="http://www.w3.org/1999/xlink" x="0px" y="0px"
	 viewBox="0 0 58 58" style="enable-background:new 0 0 58 58;" xml:space="preserve">
<path style="fill:#8697CB;" d="M56.768,6.562l-6.451-6.451c-0.147-0.147-0.386-0.148-0.534-0.001l-6.475,6.441
	c-1.335,1.335-0.844,3.806,1.474,4.306c0.973,0.21,1.989-0.128,2.693-0.832L47.5,10c0,10.995-7.004,18.704-16,20V10
	c2.302,2.302,4.23,0.268,4.23,0.268c0.976-0.976,0.976-2.559,0-3.536l-6.451-6.451c-0.147-0.147-0.386-0.148-0.534-0.001
	L22.27,6.722c-0.976,0.976-0.976,2.559,0,3.536c0.976,0.976,3.254,0.719,4.23-0.257v20c-8.996-1.296-16-9.005-16-20l0.025,0.025
	c0.704,0.704,1.72,1.042,2.693,0.832c2.318-0.5,2.809-2.971,1.474-4.306L8.217,0.11C8.069-0.037,7.831-0.037,7.683,0.111
	L1.232,6.562c-0.976,0.976-0.976,2.559,0,3.536v0C2.176,11.041,4.519,10.881,5.5,10c0,15.423,8.36,25.012,21,25.922V46h-4
	c-1.381,0-2.5,1.119-2.5,2.5v0c0,1.381,1.119,2.5,2.5,2.5h4v4.5c0,1.381,1.119,2.5,2.5,2.5h0c1.381,0,2.5-1.119,2.5-2.5V51h4
	c1.381,0,2.5-1.119,2.5-2.5v0c0-1.381-1.119-2.5-2.5-2.5h-4V35.833c12.215-1.327,21-10.814,21-25.833
	c0.981,0.881,3.324,1.041,4.268,0.097v0C57.744,9.121,57.744,7.538,56.768,6.562z"/>
<g>
</g>
<g>
</g>
<g>
</g>
<g>
</g>
<g>
</g>
<g>
</g>
<g>
</g>
<g>
</g>
<g>
</g>
<g>
</g>
<g>
</g>
<g>
</g>
<g>
</g>
<g>
</g>
<g>
</g>
</svg>
