<?xml version="1.0" encoding="iso-8859-1"?>
<!-- Generator: Adobe Illustrator 19.0.0, SVG Export Plug-In . SVG Version: 6.00 Build 0)  -->
<svg version="1.1" id="Capa_1" xmlns="http://www.w3.org/2000/svg" xmlns:xlink="http://www.w3.org/1999/xlink" x="0px" y="0px"
	 viewBox="0 0 58 58" style="enable-background:new 0 0 58 58;" xml:space="preserve">
<g>
	<path style="fill:#CB8252;" d="M31,25.227C31,25.654,31.346,26,31.773,26h22.042C52.41,14.261,42.875,5.028,31,4.087V25.227z"/>
	<path style="fill:#CB8252;" d="M26.227,26C26.654,26,27,25.654,27,25.227V4.087C15.125,5.028,5.59,14.261,4.185,26H26.227z"/>
	<path style="fill:#CB8252;" d="M27,30.773C27,30.346,26.654,30,26.227,30H4.025C4.525,42.675,14.458,52.919,27,53.913V30.773z"/>
	<path style="fill:#CB8252;" d="M31.773,30C31.346,30,31,30.346,31,30.773v23.141C43.542,52.919,53.475,42.675,53.975,30H31.773z"/>
</g>
<g>
	<path style="fill:#F3D55B;" d="M31,25.227C31,25.654,31.346,26,31.773,26H49.76C48.39,16.49,40.647,9.018,31,8.101V25.227z"/>
	<path style="fill:#F3D55B;" d="M26.227,26C26.654,26,27,25.654,27,25.227V8.101C17.353,9.018,9.61,16.49,8.24,26H26.227z"/>
	<path style="fill:#F3D55B;" d="M31.773,30C31.346,30,31,30.346,31,30.773v19.126C41.314,48.919,49.454,40.446,49.949,30H31.773z"/>
	<path style="fill:#F3D55B;" d="M27,30.773C27,30.346,26.654,30,26.227,30H8.051C8.546,40.446,16.686,48.919,27,49.899V30.773z"/>
</g>
<path style="fill:#F0C419;" d="M55.893,26h-24.12C31.346,26,31,25.654,31,25.227V2.107c0-0.996-0.681-1.92-1.664-2.08
	C28.083-0.176,27,0.785,27,2v23.227C27,25.654,26.654,26,26.227,26H2.107c-0.996,0-1.92,0.681-2.08,1.664
	C-0.177,28.917,0.785,30,2,30h24.227C26.654,30,27,30.346,27,30.773v25.12c0,0.996,0.681,1.92,1.664,2.08
	C29.917,58.176,31,57.215,31,56V30.773C31,30.346,31.346,30,31.773,30H56c1.215,0,2.177-1.083,1.973-2.336
	C57.813,26.681,56.889,26,55.893,26z"/>
<g>
</g>
<g>
</g>
<g>
</g>
<g>
</g>
<g>
</g>
<g>
</g>
<g>
</g>
<g>
</g>
<g>
</g>
<g>
</g>
<g>
</g>
<g>
</g>
<g>
</g>
<g>
</g>
<g>
</g>
</svg>
