<?xml version="1.0" encoding="iso-8859-1"?>
<!-- Generator: Adobe Illustrator 19.0.0, SVG Export Plug-In . SVG Version: 6.00 Build 0)  -->
<svg version="1.1" id="Capa_1" xmlns="http://www.w3.org/2000/svg" xmlns:xlink="http://www.w3.org/1999/xlink" x="0px" y="0px"
	 viewBox="0 0 48 48" style="enable-background:new 0 0 48 48;" xml:space="preserve">
<path style="fill:#EEAF4B;" d="M48,3.101L48,3.101c0-1.169-1.002-2.109-2.166-1.999C34.823,2.134,26.048,10.966,25.092,22h-2.185
	C21.952,10.966,13.177,2.134,2.166,1.101C1.002,0.992,0,1.932,0,3.101v0c0,1.041,0.802,1.888,1.838,1.988
	C10.796,5.952,17.953,13.064,18.893,22H8.999C7.895,22,7,22.895,7,23.999v0.002C7,25.105,7.895,26,8.999,26h9.893
	c-0.939,8.936-8.097,16.048-17.055,16.912C0.802,43.012,0,43.858,0,44.899v0c0,1.169,1.002,2.109,2.166,1.999
	C13.177,45.866,21.952,37.034,22.908,26h2.185c0.956,11.034,9.73,19.866,20.742,20.899C46.998,47.008,48,46.068,48,44.899v0
	c0-1.041-0.802-1.888-1.838-1.988C37.204,42.048,30.047,34.936,29.107,26h9.893C40.105,26,41,25.105,41,24.001v-0.002
	C41,22.895,40.105,22,39.001,22h-9.893c0.939-8.936,8.097-16.048,17.055-16.912C47.198,4.988,48,4.142,48,3.101z"/>
<g>
</g>
<g>
</g>
<g>
</g>
<g>
</g>
<g>
</g>
<g>
</g>
<g>
</g>
<g>
</g>
<g>
</g>
<g>
</g>
<g>
</g>
<g>
</g>
<g>
</g>
<g>
</g>
<g>
</g>
</svg>
