<?xml version="1.0" encoding="iso-8859-1"?>
<!-- Generator: Adobe Illustrator 19.0.0, SVG Export Plug-In . SVG Version: 6.00 Build 0)  -->
<svg version="1.1" id="Capa_1" xmlns="http://www.w3.org/2000/svg" xmlns:xlink="http://www.w3.org/1999/xlink" x="0px" y="0px"
	 viewBox="0 0 60 60" style="enable-background:new 0 0 60 60;" xml:space="preserve">
<path style="fill:#559A92;" d="M15.727,13.758l13.37-13.37c0.499-0.499,1.308-0.499,1.808,0l13.37,13.37
	c0.196,0.196,0.196,0.514,0,0.71L30,28.742L15.727,14.468C15.531,14.272,15.531,13.954,15.727,13.758z"/>
<path style="fill:#81CCB8;" d="M21.311,13.537l8.406-8.405c0.156-0.156,0.41-0.156,0.566,0l8.406,8.405
	c0.156,0.156,0.156,0.41,0,0.566l-8.406,8.406c-0.156,0.156-0.41,0.156-0.566,0l-8.406-8.406
	C21.155,13.946,21.155,13.693,21.311,13.537z"/>
<path style="fill:#559A92;" d="M15.727,45.288L30,31.014l14.273,14.273c0.196,0.196,0.196,0.514,0,0.71L30.487,59.784
	c-0.269,0.269-0.705,0.269-0.973,0L15.727,45.997C15.531,45.801,15.531,45.484,15.727,45.288z"/>
<path style="fill:#81CCB8;" d="M21.311,45.537l8.406-8.405c0.156-0.156,0.41-0.156,0.566,0l8.406,8.406
	c0.156,0.156,0.156,0.41,0,0.566l-8.406,8.405c-0.156,0.156-0.41,0.156-0.566,0l-8.406-8.406
	C21.155,45.946,21.155,45.693,21.311,45.537z"/>
<path style="fill:#559A92;" d="M13.744,44.015l-13.37-13.37c-0.499-0.499-0.499-1.308,0-1.808l13.37-13.37
	c0.196-0.196,0.514-0.196,0.71,0l14.274,14.273L14.454,44.015C14.258,44.211,13.94,44.211,13.744,44.015z"/>
<path style="fill:#81CCB8;" d="M5.505,29.459l8.406-8.406c0.156-0.156,0.41-0.156,0.566,0l8.406,8.406
	c0.156,0.156,0.156,0.41,0,0.566l-8.406,8.406c-0.156,0.156-0.41,0.156-0.566,0l-8.406-8.406
	C5.349,29.868,5.349,29.615,5.505,29.459z"/>
<path style="fill:#559A92;" d="M45.302,44.015L31.028,29.742l14.273-14.273c0.196-0.196,0.514-0.196,0.71,0l13.787,13.787
	c0.269,0.269,0.269,0.705,0,0.973L46.011,44.015C45.815,44.211,45.498,44.211,45.302,44.015z"/>
<path style="fill:#81CCB8;" d="M37.117,29.459l8.406-8.406c0.156-0.156,0.41-0.156,0.566,0l8.406,8.406
	c0.156,0.156,0.156,0.41,0,0.566l-8.406,8.406c-0.156,0.156-0.41,0.156-0.566,0l-8.406-8.406
	C36.961,29.868,36.961,29.615,37.117,29.459z"/>
<g>
</g>
<g>
</g>
<g>
</g>
<g>
</g>
<g>
</g>
<g>
</g>
<g>
</g>
<g>
</g>
<g>
</g>
<g>
</g>
<g>
</g>
<g>
</g>
<g>
</g>
<g>
</g>
<g>
</g>
</svg>
