<?xml version="1.0" encoding="iso-8859-1"?>
<!-- Generator: Adobe Illustrator 19.0.0, SVG Export Plug-In . SVG Version: 6.00 Build 0)  -->
<svg version="1.1" id="Capa_1" xmlns="http://www.w3.org/2000/svg" xmlns:xlink="http://www.w3.org/1999/xlink" x="0px" y="0px"
	 viewBox="0 0 50 50" style="enable-background:new 0 0 50 50;" xml:space="preserve">
<path style="fill:#CECECE;" d="M48,23H34.656c-1.782,0-2.674-2.154-1.414-3.414l9.436-9.436c0.781-0.781,0.781-2.047,0-2.828v0
	c-0.781-0.781-2.047-0.781-2.828,0l-9.436,9.436C29.154,18.018,27,17.126,27,15.344V2c0-1.104-0.895-2-2-2h0c-1.104,0-2,0.895-2,2
	v13.344c0,1.782-2.154,2.674-3.414,1.414L10.15,7.322c-0.781-0.781-2.047-0.781-2.828,0l0,0c-0.781,0.781-0.781,2.047,0,2.828
	l9.436,9.436c1.26,1.26,0.368,3.414-1.414,3.414H2c-1.104,0-2,0.895-2,2v0c0,1.104,0.895,2,2,2h13.344
	c1.782,0,2.674,2.154,1.414,3.414L7.322,39.85c-0.781,0.781-0.781,2.047,0,2.828h0c0.781,0.781,2.047,0.781,2.828,0l9.436-9.436
	c1.26-1.26,3.414-0.368,3.414,1.414V48c0,1.104,0.895,2,2,2h0c1.104,0,2-0.895,2-2V34.656c0-1.782,2.154-2.674,3.414-1.414
	l9.436,9.436c0.781,0.781,2.047,0.781,2.828,0l0,0c0.781-0.781,0.781-2.047,0-2.828l-9.436-9.436C31.982,29.154,32.874,27,34.656,27
	H48c1.104,0,2-0.895,2-2v0C50,23.895,49.105,23,48,23z"/>
<g>
</g>
<g>
</g>
<g>
</g>
<g>
</g>
<g>
</g>
<g>
</g>
<g>
</g>
<g>
</g>
<g>
</g>
<g>
</g>
<g>
</g>
<g>
</g>
<g>
</g>
<g>
</g>
<g>
</g>
</svg>
