<?xml version="1.0" encoding="iso-8859-1"?>
<!-- Generator: Adobe Illustrator 19.0.0, SVG Export Plug-In . SVG Version: 6.00 Build 0)  -->
<svg version="1.1" id="Capa_1" xmlns="http://www.w3.org/2000/svg" xmlns:xlink="http://www.w3.org/1999/xlink" x="0px" y="0px"
	 viewBox="0 0 58 58" style="enable-background:new 0 0 58 58;" xml:space="preserve">
<path style="fill:#546A79;" d="M57.973,28.618c-0.16-0.983-1.083-1.664-2.08-1.664h-4.606c-0.159,0-0.287-0.129-0.287-0.287v-3.713
	c0-1.105-0.895-2-2-2s-2,0.895-2,2v3.713c0,0.159-0.129,0.287-0.287,0.287h-6.814C38.875,16.696,30.071,8.696,19.49,8.961
	c-4.363,0.109-8.411,1.677-11.68,4.216c-0.719-0.399-3.516-2.201-2.72-5.702C5.3,6.548,4.941,5.601,4.154,5.106
	C2.936,4.589,1.507,5.278,1.232,6.595C0.624,9.5,1.028,13.359,4.817,16.012c-2.774,3.237-4.546,7.354-4.787,11.844
	c-0.289,5.369,1.555,10.313,4.756,14.064c-3.85,2.716-4.177,6.682-3.509,9.6c0.288,1.256,1.672,1.912,2.824,1.335
	c0.843-0.422,1.248-1.378,1.019-2.293c-0.877-3.511,1.842-5.348,2.64-5.802c3.385,2.628,7.633,4.195,12.24,4.195
	c10.353,0,18.892-7.907,19.899-18h6.814c0.159,0,0.287,0.129,0.287,0.287v3.713c0,1.105,0.895,2,2,2s2-0.895,2-2v-3.713
	c0-0.159,0.129-0.287,0.287-0.287H56C57.215,30.954,58.176,29.871,57.973,28.618z"/>
<circle style="fill:#D1D4D1;" cx="20" cy="28.954" r="16"/>
<g>
</g>
<g>
</g>
<g>
</g>
<g>
</g>
<g>
</g>
<g>
</g>
<g>
</g>
<g>
</g>
<g>
</g>
<g>
</g>
<g>
</g>
<g>
</g>
<g>
</g>
<g>
</g>
<g>
</g>
</svg>
