<?xml version="1.0" encoding="iso-8859-1"?>
<!-- Generator: Adobe Illustrator 19.0.0, SVG Export Plug-In . SVG Version: 6.00 Build 0)  -->
<svg version="1.1" id="Capa_1" xmlns="http://www.w3.org/2000/svg" xmlns:xlink="http://www.w3.org/1999/xlink" x="0px" y="0px"
	 viewBox="0 0 50 50" style="enable-background:new 0 0 50 50;" xml:space="preserve">
<path style="fill:#556080;" d="M25,41c-6.617,0-12-5.383-12-12s5.383-12,12-12s12,5.383,12,12S31.617,41,25,41z"/>
<circle style="fill:#CC66A1;" cx="25" cy="29" r="8"/>
<circle style="fill:#556080;" cx="25" cy="8" r="8"/>
<path style="fill:#8697CB;" d="M25,12c-2.206,0-4-1.794-4-4s1.794-4,4-4s4,1.794,4,4S27.206,12,25,12z"/>
<circle style="fill:#556080;" cx="8" cy="42" r="8"/>
<path style="fill:#65DDB9;" d="M8,46c-2.206,0-4-1.794-4-4s1.794-4,4-4s4,1.794,4,4S10.206,46,8,46z"/>
<circle style="fill:#556080;" cx="42" cy="42" r="8"/>
<path style="fill:#F0C419;" d="M42,46c-2.206,0-4-1.794-4-4s1.794-4,4-4s4,1.794,4,4S44.206,46,42,46z"/>
<g>
</g>
<g>
</g>
<g>
</g>
<g>
</g>
<g>
</g>
<g>
</g>
<g>
</g>
<g>
</g>
<g>
</g>
<g>
</g>
<g>
</g>
<g>
</g>
<g>
</g>
<g>
</g>
<g>
</g>
</svg>
