<?xml version="1.0" encoding="iso-8859-1"?>
<!-- Generator: Adobe Illustrator 19.0.0, SVG Export Plug-In . SVG Version: 6.00 Build 0)  -->
<svg version="1.1" id="Capa_1" xmlns="http://www.w3.org/2000/svg" xmlns:xlink="http://www.w3.org/1999/xlink" x="0px" y="0px"
	 viewBox="0 0 53.394 53.394" style="enable-background:new 0 0 53.394 53.394;" xml:space="preserve">
<path style="fill:#FF5364;" d="M26.18,53.18L0.214,27.214c-0.286-0.286-0.286-0.749,0-1.034L26.18,0.214
	c0.286-0.286,0.749-0.286,1.034,0L53.18,26.18c0.286,0.286,0.286,0.749,0,1.034L27.214,53.18
	C26.929,53.466,26.466,53.466,26.18,53.18z"/>
<path style="fill:#F3D55B;" d="M5.871,26.18L26.18,5.871c0.286-0.286,0.749-0.286,1.034,0L47.523,26.18
	c0.286,0.286,0.286,0.749,0,1.034L27.214,47.523c-0.286,0.286-0.749,0.286-1.034,0L5.871,27.214
	C5.586,26.929,5.586,26.466,5.871,26.18z"/>
<g>
</g>
<g>
</g>
<g>
</g>
<g>
</g>
<g>
</g>
<g>
</g>
<g>
</g>
<g>
</g>
<g>
</g>
<g>
</g>
<g>
</g>
<g>
</g>
<g>
</g>
<g>
</g>
<g>
</g>
</svg>
