<?xml version="1.0" encoding="iso-8859-1"?>
<!-- Generator: Adobe Illustrator 19.0.0, SVG Export Plug-In . SVG Version: 6.00 Build 0)  -->
<svg version="1.1" id="Capa_1" xmlns="http://www.w3.org/2000/svg" xmlns:xlink="http://www.w3.org/1999/xlink" x="0px" y="0px"
	 viewBox="0 0 58 58" style="enable-background:new 0 0 58 58;" xml:space="preserve">
<path style="fill:#7F8C8D;" d="M32.784,37.692L51.223,6.447c1.094-1.903,0.614-4.465-1.436-5.791C49.08,0.2,48.235,0,47.394,0
	L31.793,0h-6L10.606,0C9.763,0,8.917,0.201,8.21,0.659C6.158,1.988,5.684,4.553,6.781,6.451l18.025,31.246
	c0.005,0.008,0.009,0.016,0.014,0.024c0.944,1.611,1.636,3.35,1.875,5.176C26.702,42.951,26.659,43,26.605,43h-4.812
	c-1.105,0-2,0.895-2,2v0c0,1.105,0.895,2,2,2h4.912c0.049,0,0.088,0.039,0.088,0.088v3.824c0,0.049-0.039,0.088-0.088,0.088h-4.912
	c-1.105,0-2,0.895-2,2v0c0,1.105,0.895,2,2,2h4.912c0.049,0,0.088,0.039,0.088,0.088v0.805c0,0.888,0.52,1.75,1.369,2.011
	c1.373,0.421,2.631-0.594,2.631-1.903v-1h5c1.105,0,2-0.895,2-2v0c0-1.105-0.895-2-2-2h-4.912c-0.049,0-0.088-0.039-0.088-0.088
	v-3.824c0-0.049,0.039-0.088,0.088-0.088h4.912c1.105,0,2-0.895,2-2v0c0-1.105-0.895-2-2-2h-4.813c-0.054,0-0.097-0.049-0.09-0.102
	c0.236-1.821,0.92-3.558,1.867-5.16C32.766,37.723,32.775,37.708,32.784,37.692z"/>
<path style="fill:#F3D55B;" d="M47.755,4.453L29.318,35.696c-0.233,0.404-0.816,0.404-1.048,0L10.245,4.453
	C10.129,4.252,10.275,4,10.507,4h36.986C47.726,4,47.871,4.251,47.755,4.453z"/>
<g>
</g>
<g>
</g>
<g>
</g>
<g>
</g>
<g>
</g>
<g>
</g>
<g>
</g>
<g>
</g>
<g>
</g>
<g>
</g>
<g>
</g>
<g>
</g>
<g>
</g>
<g>
</g>
<g>
</g>
</svg>
