<?xml version="1.0" encoding="iso-8859-1"?>
<!-- Generator: Adobe Illustrator 19.0.0, SVG Export Plug-In . SVG Version: 6.00 Build 0)  -->
<svg version="1.1" id="Capa_1" xmlns="http://www.w3.org/2000/svg" xmlns:xlink="http://www.w3.org/1999/xlink" x="0px" y="0px"
	 viewBox="0 0 55 55" style="enable-background:new 0 0 55 55;" xml:space="preserve">
<path style="fill:#8697CB;" d="M29.983,17.927L43.703,0.95C44.011,0.568,43.74,0,43.249,0H27.5H11.751
	c-0.49,0-0.762,0.568-0.454,0.95L25.076,18c0.293,0.363,0.453,0.816,0.453,1.283V22h-6c-1.105,0-2,0.895-2,2c0,1.104,0.895,2,2,2h6
	v4h-6c-1.105,0-2,0.895-2,2c0,1.104,0.895,2,2,2h6v4h-6c-1.105,0-2,0.895-2,2c0,1.104,0.895,2,2,2h6v4h-6c-1.105,0-2,0.895-2,2
	c0,1.104,0.895,2,2,2h6v3c0,1.104,0.895,2,2,2s2-0.896,2-2v-3h6c1.105,0,2-0.896,2-2c0-1.105-0.895-2-2-2h-6v-4h6
	c1.105,0,2-0.896,2-2c0-1.105-0.895-2-2-2h-6v-4h6c1.105,0,2-0.896,2-2c0-1.105-0.895-2-2-2h-6v-4h6c1.105,0,2-0.896,2-2
	c0-1.105-0.895-2-2-2h-6v-2.79C29.529,18.743,29.69,18.291,29.983,17.927z"/>
<polygon style="fill:#955BA5;" points="18.905,4 36.095,4 27.5,14.636 "/>
<g>
</g>
<g>
</g>
<g>
</g>
<g>
</g>
<g>
</g>
<g>
</g>
<g>
</g>
<g>
</g>
<g>
</g>
<g>
</g>
<g>
</g>
<g>
</g>
<g>
</g>
<g>
</g>
<g>
</g>
</svg>
