<?xml version="1.0" encoding="iso-8859-1"?>
<!-- Generator: Adobe Illustrator 19.0.0, SVG Export Plug-In . SVG Version: 6.00 Build 0)  -->
<svg version="1.1" id="Capa_1" xmlns="http://www.w3.org/2000/svg" xmlns:xlink="http://www.w3.org/1999/xlink" x="0px" y="0px"
	 viewBox="0 0 58 58" style="enable-background:new 0 0 58 58;" xml:space="preserve">
<path style="fill:#2C2F38;" d="M56.571,22.019L32,25l2.748-23.571C34.879,0.684,34.306,0,33.549,0H23.451
	c-0.757,0-1.331,0.684-1.199,1.429L25,25L1.429,22.019C0.684,21.887,0,22.461,0,23.218v10.097c0,0.757,0.684,1.331,1.429,1.199
	L25,30l-2.748,26.571C22.121,57.316,22.694,58,23.451,58h10.097c0.757,0,1.331-0.684,1.199-1.429L32,30l24.571,4.514
	C57.316,34.646,58,34.072,58,33.315V23.218C58,22.461,57.316,21.887,56.571,22.019z"/>
<g>
</g>
<g>
</g>
<g>
</g>
<g>
</g>
<g>
</g>
<g>
</g>
<g>
</g>
<g>
</g>
<g>
</g>
<g>
</g>
<g>
</g>
<g>
</g>
<g>
</g>
<g>
</g>
<g>
</g>
</svg>
