<?xml version="1.0" encoding="iso-8859-1"?>
<!-- Generator: Adobe Illustrator 19.0.0, SVG Export Plug-In . SVG Version: 6.00 Build 0)  -->
<svg version="1.1" id="Capa_1" xmlns="http://www.w3.org/2000/svg" xmlns:xlink="http://www.w3.org/1999/xlink" x="0px" y="0px"
	 viewBox="0 0 58 58" style="enable-background:new 0 0 58 58;" xml:space="preserve">
<path style="fill:#67B9CC;" d="M57.42,27.542l-3.385-3.404c-0.57-0.573-1.426-0.824-2.188-0.553
	c-1.507,0.535-1.552,2.386-0.595,3.349H40C38.967,16.686,30.064,8.696,19.49,8.961c-4.363,0.109-8.411,1.677-11.68,4.216
	c-0.719-0.399-3.516-2.201-2.72-5.701C5.3,6.549,4.941,5.601,4.154,5.106C2.936,4.589,1.507,5.278,1.232,6.595
	C0.624,9.5,1.028,13.359,4.817,16.012c-2.774,3.237-4.546,7.354-4.787,11.844c-0.289,5.369,1.555,10.313,4.756,14.064
	c-3.85,2.715-4.177,6.682-3.509,9.6c0.288,1.256,1.672,1.912,2.824,1.335c0.843-0.423,1.248-1.378,1.019-2.293
	c-0.877-3.511,1.842-5.348,2.64-5.802c3.385,2.628,7.633,4.195,12.24,4.195c10.353,0,18.993-7.928,20-18.02h11.253
	c-0.771,0.776-0.892,2.155-0.121,2.931h0c0.771,0.776,2.022,0.776,2.794,0l2.096-2.108l0,0l1.397-1.405
	C58.193,29.574,58.193,28.319,57.42,27.542z M20,44.954c-8.837,0-16-7.163-16-16c0-8.837,7.163-16,16-16s16,7.163,16,16
	C36,37.791,28.837,44.954,20,44.954z"/>
<g>
</g>
<g>
</g>
<g>
</g>
<g>
</g>
<g>
</g>
<g>
</g>
<g>
</g>
<g>
</g>
<g>
</g>
<g>
</g>
<g>
</g>
<g>
</g>
<g>
</g>
<g>
</g>
<g>
</g>
</svg>
