<?xml version="1.0" encoding="iso-8859-1"?>
<!-- Generator: Adobe Illustrator 19.0.0, SVG Export Plug-In . SVG Version: 6.00 Build 0)  -->
<svg version="1.1" id="Capa_1" xmlns="http://www.w3.org/2000/svg" xmlns:xlink="http://www.w3.org/1999/xlink" x="0px" y="0px"
	 viewBox="0 0 57.487 57.487" style="enable-background:new 0 0 57.487 57.487;" xml:space="preserve">
<path style="fill:#556080;" d="M54,34.512V20.871c0.776,0.772,2.129,0.638,2.905-0.134c0.776-0.771,0.776-2.022,0-2.794
	l-3.513-3.494c-0.777-0.773-2.033-0.773-2.81,0l-1.405,1.397l0,0l-2.108,2.096c-0.776,0.771-0.776,2.022,0,2.794v0
	c0.776,0.771,2.155,0.905,2.931,0.133v6H35V9.313c1.19-0.694,2-1.969,2-3.444c0-2.206-1.794-4-4-4s-4,1.794-4,4
	c0,1.474,0.81,2.75,2,3.444v17.557L16,26.87c-0.973-3.321-4.364-5.747-8-5.747c-4.418,0-8,3.582-8,8s3.582,8,8,8
	c3.817,0,7.202-2.676,8-6.253l15,0.001v18c-0.776-0.771-2.155-0.892-2.931-0.121v0c-0.776,0.771-0.776,2.022,0,2.794l2.108,2.096
	l0,0l1.405,1.397c0.777,0.773,2.033,0.773,2.81,0l3.404-3.385c0.573-0.57,0.824-1.426,0.553-2.188
	c-0.535-1.507-2.386-1.552-3.349-0.595v-18h15v3.642c-0.776-0.771-2.155-0.892-2.931-0.121v0c-0.776,0.771-0.776,2.022,0,2.794
	l2.108,2.096l0,0l1.405,1.397c0.777,0.773,2.033,0.773,2.81,0l3.404-3.385c0.573-0.57,0.824-1.426,0.553-2.188
	C56.814,33.6,54.963,33.555,54,34.512z"/>
<path style="fill:#D1D4D1;" d="M8,33.123c-2.206,0-4-1.794-4-4s1.794-4,4-4s4,1.794,4,4S10.206,33.123,8,33.123z"/>
<g>
</g>
<g>
</g>
<g>
</g>
<g>
</g>
<g>
</g>
<g>
</g>
<g>
</g>
<g>
</g>
<g>
</g>
<g>
</g>
<g>
</g>
<g>
</g>
<g>
</g>
<g>
</g>
<g>
</g>
</svg>
