<?xml version="1.0" encoding="iso-8859-1"?>
<!-- Generator: Adobe Illustrator 19.0.0, SVG Export Plug-In . SVG Version: 6.00 Build 0)  -->
<svg version="1.1" id="Capa_1" xmlns="http://www.w3.org/2000/svg" xmlns:xlink="http://www.w3.org/1999/xlink" x="0px" y="0px"
	 viewBox="0 0 58 58" style="enable-background:new 0 0 58 58;" xml:space="preserve">
<polygon style="fill:#7F5B53;" points="0,0 0,6 15,6 15,34 21,34 21,6 37,6 37,34 43,34 43,6 58,6 58,0 "/>
<polygon style="fill:#C3A97E;" points="32,52 32,40 54,40 54,18 48,18 48,34 32,34 32,18 26,18 26,34 10,34 10,18 4,18 4,40 26,40 
	26,52 0,52 0,58 58,58 58,52 "/>
<g>
</g>
<g>
</g>
<g>
</g>
<g>
</g>
<g>
</g>
<g>
</g>
<g>
</g>
<g>
</g>
<g>
</g>
<g>
</g>
<g>
</g>
<g>
</g>
<g>
</g>
<g>
</g>
<g>
</g>
</svg>
