<?xml version="1.0" encoding="iso-8859-1"?>
<!-- Generator: Adobe Illustrator 19.0.0, SVG Export Plug-In . SVG Version: 6.00 Build 0)  -->
<svg version="1.1" id="Capa_1" xmlns="http://www.w3.org/2000/svg" xmlns:xlink="http://www.w3.org/1999/xlink" x="0px" y="0px"
	 viewBox="0 0 58 58" style="enable-background:new 0 0 58 58;" xml:space="preserve">
<path style="fill:#DF4D60;" d="M56.175,47.908C46.827,46.964,39.5,38.844,39.5,29s7.327-17.964,16.675-18.908
	C57.206,9.988,58,9.141,58,8.104c0-1.167-0.997-2.113-2.159-1.999c-9.639,0.942-17.499,8.136-19.703,17.551L29.5,8.904
	l-7.328,16.285C20.505,15.028,12.315,7.098,2.159,6.105C0.997,5.991,0,6.937,0,8.104c0,1.037,0.794,1.883,1.825,1.988
	C11.173,11.036,18.5,19.156,18.5,29S11.173,46.964,1.825,47.908C0.794,48.012,0,48.859,0,49.896l0,0
	c0,1.167,0.997,2.113,2.159,1.999c10.253-1.002,18.497-9.075,20.054-19.375L29.5,47.904l6.567-13.863
	c2.104,9.564,10.033,16.901,19.775,17.854C57.003,52.009,58,51.063,58,49.896l0,0C58,48.859,57.206,48.012,56.175,47.908z"/>
<polygon style="fill:#F3D55B;" points="24.905,28.861 29.5,18.651 34.095,28.861 29.5,38.561 "/>
<g>
</g>
<g>
</g>
<g>
</g>
<g>
</g>
<g>
</g>
<g>
</g>
<g>
</g>
<g>
</g>
<g>
</g>
<g>
</g>
<g>
</g>
<g>
</g>
<g>
</g>
<g>
</g>
<g>
</g>
</svg>
