<?xml version="1.0" encoding="iso-8859-1"?>
<!-- Generator: Adobe Illustrator 19.0.0, SVG Export Plug-In . SVG Version: 6.00 Build 0)  -->
<svg version="1.1" id="Capa_1" xmlns="http://www.w3.org/2000/svg" xmlns:xlink="http://www.w3.org/1999/xlink" x="0px" y="0px"
	 viewBox="0 0 57 57" style="enable-background:new 0 0 57 57;" xml:space="preserve">
<path style="fill:#7F8C8D;" d="M51.062,19.204L40.653,0.278C40.559,0.107,40.378,0,40.182,0H16.818
	c-0.196,0-0.376,0.107-0.471,0.278L5.938,19.204C5.741,19.562,6,20,6.408,20H26.5v30.254l-0.121-0.12
	c-0.776-0.772-2.008-0.772-2.784,0c-0.776,0.771-0.776,2.022,0,2.794l3.513,3.494c0.776,0.771,2.034,0.771,2.81,0l1.405-1.397l0,0
	l2.108-2.096c0.776-0.771,0.776-2.022,0-2.794v0c-0.776-0.771-2.034-0.771-2.81,0l-0.121,0.12V20h20.092
	C51,20,51.259,19.562,51.062,19.204z"/>
<polygon style="fill:#65DDB9;" points="12.265,16 18.865,4 38.135,4 44.735,16 "/>
<g>
</g>
<g>
</g>
<g>
</g>
<g>
</g>
<g>
</g>
<g>
</g>
<g>
</g>
<g>
</g>
<g>
</g>
<g>
</g>
<g>
</g>
<g>
</g>
<g>
</g>
<g>
</g>
<g>
</g>
</svg>
