<?xml version="1.0" encoding="iso-8859-1"?>
<!-- Generator: Adobe Illustrator 19.0.0, SVG Export Plug-In . SVG Version: 6.00 Build 0)  -->
<svg version="1.1" id="Capa_1" xmlns="http://www.w3.org/2000/svg" xmlns:xlink="http://www.w3.org/1999/xlink" x="0px" y="0px"
	 viewBox="0 0 57 57" style="enable-background:new 0 0 57 57;" xml:space="preserve">
<path style="fill:#7A3726;" d="M46.853,10h-12.5l-0.014-4.159C34.339,2.782,31.836,0,28.778,0s-5.425,2.493-5.425,5.551V10H10.147
	c-1.375,0-2.5,1.125-2.5,2.5v1c0,1.375,1.125,2.5,2.5,2.5h8.206c-1.375,0-2.365,0.975-2.365,2.35v0.561
	c0,0.991,0.736,1.633,1.66,1.917c0.02,0.006,0.038,0.014,0.058,0.02c0.109,0.031,0.221,0.053,0.335,0.075
	c0.067,0.013,0.132,0.031,0.201,0.04c0.154,0.021,0.311,0.03,0.467,0.033c0.021,0,0.04,0.004,0.06,0.004h0.005h4.58v5h-0.08
	c-0.007,0-0.013,0.001-0.02,0.001c-1.376,0-2.8,0.011-3.955,0.324c-2.02,0.548-2.595,2.299-2.042,3.712
	C17.648,31.112,18.726,32,20.353,32h3v4.981h-3.472c-1.407,0-2.737,0.144-3.92,0.465C12.398,38.414,12.661,44,16.353,44h0.422h6.442
	l1.92,3.453c-1.094,1.005-1.785,2.444-1.785,4.047c0,3.038,2.462,5.5,5.5,5.5s5.5-2.462,5.5-5.5c0-1.652-0.732-3.129-1.884-4.137
	L32.115,48l2.224-4h6.02h0.422c3.692,0,4.377-5.586,0.814-6.554c-1.183-0.321-2.513-0.465-3.92-0.465h-3.322V32h3.092h0.242
	c2.807,0,3.762-2.638,2.495-4.329c-0.376-0.6-1.006-1.097-1.922-1.346C37.091,26.008,35.791,26,34.405,26c-0.004,0-0.007,0-0.011,0
	h-0.041l-0.014-5h4.449h0.565c1.375,0,2.215-0.714,2.215-2.089V18.35c0-1.375-1.26-2.35-2.635-2.35h7.92c1.375,0,2.5-1.125,2.5-2.5
	v-1C49.353,11.125,48.228,10,46.853,10z"/>
<g>
</g>
<g>
</g>
<g>
</g>
<g>
</g>
<g>
</g>
<g>
</g>
<g>
</g>
<g>
</g>
<g>
</g>
<g>
</g>
<g>
</g>
<g>
</g>
<g>
</g>
<g>
</g>
<g>
</g>
</svg>
