<?xml version="1.0" encoding="iso-8859-1"?>
<!-- Generator: Adobe Illustrator 19.0.0, SVG Export Plug-In . SVG Version: 6.00 Build 0)  -->
<svg version="1.1" id="Capa_1" xmlns="http://www.w3.org/2000/svg" xmlns:xlink="http://www.w3.org/1999/xlink" x="0px" y="0px"
	 viewBox="0 0 57 57" style="enable-background:new 0 0 57 57;" xml:space="preserve">
<path style="fill:#F3D55B;" d="M50.719,33.549L32.694,2.303C31.875,0.883,30.346,0,28.707,0c-1.644,0-3.173,0.886-3.991,2.308
	L6.277,33.553c-1.094,1.903-0.614,4.465,1.435,5.79C8.419,39.8,9.264,40,10.105,40h15.602h1v5.713c0,0.159-0.129,0.287-0.287,0.287
	h-3.713c-1.105,0-2,0.896-2,2s0.895,2,2,2h3.713c0.159,0,0.287,0.129,0.287,0.287V55c0,1.215,1,2,2,2c0.996,0,2-1.111,2-2.107
	v-4.606c0-0.159,0.129-0.287,0.287-0.287h3.713c1.105,0,2-0.896,2-2s-0.895-2-2-2h-3.713c-0.159,0-0.287-0.129-0.287-0.287V40h1
	h15.187c0.842,0,1.689-0.201,2.396-0.659C51.342,38.012,51.816,35.447,50.719,33.549z"/>
<path style="fill:#F0C419;" d="M9.745,35.547L28.182,4.304c0.233-0.404,0.816-0.404,1.048,0l18.024,31.244
	C47.371,35.748,47.225,36,46.993,36H10.007C9.774,36,9.629,35.749,9.745,35.547z"/>
<g>
</g>
<g>
</g>
<g>
</g>
<g>
</g>
<g>
</g>
<g>
</g>
<g>
</g>
<g>
</g>
<g>
</g>
<g>
</g>
<g>
</g>
<g>
</g>
<g>
</g>
<g>
</g>
<g>
</g>
</svg>
