<?xml version="1.0" encoding="iso-8859-1"?>
<!-- Generator: Adobe Illustrator 19.0.0, SVG Export Plug-In . SVG Version: 6.00 Build 0)  -->
<svg version="1.1" id="Capa_1" xmlns="http://www.w3.org/2000/svg" xmlns:xlink="http://www.w3.org/1999/xlink" x="0px" y="0px"
	 viewBox="0 0 55.696 55.696" style="enable-background:new 0 0 55.696 55.696;" xml:space="preserve">
<path style="fill:#EEAF4B;" d="M53.963,27.997l-3.385-3.404c-0.57-0.573-1.426-0.824-2.188-0.553
	c-1.507,0.535-1.552,2.386-0.595,3.349H30.154l0-8h7.642c-0.771,0.776-0.892,2.155-0.121,2.931h0c0.771,0.776,2.022,0.776,2.794,0
	l2.096-2.108l0,0l1.397-1.405c0.773-0.777,0.773-2.033,0-2.81l-3.385-3.404c-0.57-0.573-1.426-0.824-2.188-0.553
	c-1.507,0.535-1.552,2.386-0.595,3.349h-7.642l0.001-8.643c0.963,0.958,2.814,0.912,3.349-0.595c0.271-0.762,0.02-1.617-0.553-2.188
	L29.546,0.58c-0.777-0.773-2.033-0.773-2.81,0l-1.405,1.397l0,0l-2.108,2.096c-0.776,0.771-0.776,2.022,0,2.794v0
	C24,7.639,25.378,7.518,26.154,6.747l-0.001,8.643h-7.517c0.772-0.776,0.638-2.129-0.134-2.905c-0.771-0.776-2.022-0.776-2.794,0
	l-3.494,3.513c-0.773,0.777-0.773,2.033,0,2.81l1.397,1.405l0,0l2.096,2.108c0.771,0.776,2.022,0.776,2.794,0h0
	c0.771-0.776,0.905-2.155,0.133-2.931h7.517l0,8h0H8.154c0.772-0.776,0.638-2.129-0.134-2.905c-0.771-0.776-2.022-0.776-2.794,0
	l-3.494,3.513c-0.773,0.777-0.773,2.033,0,2.81l1.397,1.405l0,0l2.096,2.108c0.771,0.776,2.022,0.776,2.794,0h0
	c0.771-0.776,0.905-2.155,0.133-2.931h17.999h0l0,12.971c-3.954-3.328-7.614-4.971-11.113-4.971c-1.849,0-3.654,0.474-5.35,1.397
	C7.969,41.684,6.4,43.031,5.477,44.4L5.378,44.55c-0.801,1.25-1.225,2.675-1.225,4.124c0,4.579,4.495,6.982,8.951,7
	c0.098,0.009,0.307,0.022,0.615,0.022c1.745,0,7.802-0.519,14.434-6.771c6.631,6.252,12.69,6.771,14.434,6.771
	c0.309,0,0.518-0.014,0.615-0.022c4.456-0.018,8.951-2.421,8.951-7c0-1.453-0.425-2.881-1.23-4.133l-0.103-0.155
	c-0.925-1.364-2.488-2.704-4.188-3.59c-1.712-0.933-3.518-1.406-5.366-1.406c-3.499,0-7.158,1.643-11.111,4.97l0-12.97h17.642
	c-0.771,0.776-0.892,2.155-0.121,2.931h0c0.771,0.776,2.022,0.776,2.794,0l2.096-2.108l0,0l1.397-1.405
	C54.736,30.03,54.736,28.774,53.963,27.997z M13.265,53.68l-0.111-0.006c-3.479,0-7-1.718-7-5c0-1.08,0.322-2.146,0.933-3.082
	l0.013-0.02c0.728-1.105,2.075-2.26,3.533-3.021c1.436-0.782,2.877-1.162,4.409-1.162c3.479,0,7.405,2.07,11.679,6.155
	C19.577,54.248,13.41,53.7,13.265,53.68z M45.691,42.56c1.441,0.752,2.789,1.906,3.517,3.012l0.013,0.02
	c0.61,0.937,0.933,2.002,0.933,3.082c0,3.282-3.521,5-7,5l-0.107,0.006c-0.172,0.018-6.316,0.567-13.459-6.135
	c4.273-4.085,8.199-6.155,11.679-6.155C42.798,41.389,44.239,41.769,45.691,42.56z"/>
<g>
</g>
<g>
</g>
<g>
</g>
<g>
</g>
<g>
</g>
<g>
</g>
<g>
</g>
<g>
</g>
<g>
</g>
<g>
</g>
<g>
</g>
<g>
</g>
<g>
</g>
<g>
</g>
<g>
</g>
</svg>
