<?xml version="1.0" encoding="iso-8859-1"?>
<!-- Generator: Adobe Illustrator 19.0.0, SVG Export Plug-In . SVG Version: 6.00 Build 0)  -->
<svg version="1.1" id="Capa_1" xmlns="http://www.w3.org/2000/svg" xmlns:xlink="http://www.w3.org/1999/xlink" x="0px" y="0px"
	 viewBox="0 0 57.747 57.747" style="enable-background:new 0 0 57.747 57.747;" xml:space="preserve">
<path style="fill:#DC9628;" d="M51.093,33.549L33.068,2.303C32.248,0.883,30.72,0,29.08,0c-1.644,0-3.173,0.886-3.991,2.308
	L6.651,33.553c-1.094,1.903-0.614,4.465,1.436,5.791C8.793,39.8,9.638,40,10.479,40H26.08h2v3h-5c-1.105,0-2,0.895-2,2
	c0,1.104,0.895,2,2,2h5v3.7c0,0.119-0.132,0.175-0.228,0.104c-0.796-0.59-1.998-0.626-2.703,0.075v0
	c-0.776,0.771-0.776,2.022,0,2.794l2.108,2.096l0,0l1.405,1.397c0.777,0.773,2.033,0.773,2.81,0l3.404-3.385
	c0.573-0.57,0.824-1.426,0.553-2.188c-0.495-1.395-2.119-1.537-3.121-0.791c-0.096,0.071-0.228,0.015-0.228-0.104V47h5
	c1.105,0,2-0.896,2-2c0-1.105-0.895-2-2-2h-5v-3h15.187c0.843,0,1.689-0.201,2.396-0.659C51.715,38.011,52.19,35.447,51.093,33.549z
	"/>
<path style="fill:#F0C419;" d="M10.118,35.547L28.556,4.304c0.233-0.404,0.816-0.404,1.048,0l18.024,31.244
	C47.744,35.748,47.599,36,47.366,36H10.38C10.148,36,10.003,35.749,10.118,35.547z"/>
<g>
</g>
<g>
</g>
<g>
</g>
<g>
</g>
<g>
</g>
<g>
</g>
<g>
</g>
<g>
</g>
<g>
</g>
<g>
</g>
<g>
</g>
<g>
</g>
<g>
</g>
<g>
</g>
<g>
</g>
</svg>
