<?xml version="1.0" encoding="iso-8859-1"?>
<!-- Generator: Adobe Illustrator 19.0.0, SVG Export Plug-In . SVG Version: 6.00 Build 0)  -->
<svg version="1.1" id="Capa_1" xmlns="http://www.w3.org/2000/svg" xmlns:xlink="http://www.w3.org/1999/xlink" x="0px" y="0px"
	 viewBox="0 0 54 54" style="enable-background:new 0 0 54 54;" xml:space="preserve">
<path style="fill:#E57E25;" d="M27,54C12.112,54,0,41.888,0,27S12.112,0,27,0s27,12.112,27,27S41.888,54,27,54z"/>
<path style="fill:#F29C1F;" d="M27,49C14.869,49,5,39.131,5,27S14.869,5,27,5s22,9.869,22,22S39.131,49,27,49z"/>
<path style="fill:#F0C419;" d="M27,41c-7.72,0-14-6.28-14-14s6.28-14,14-14s14,6.28,14,14S34.72,41,27,41z"/>
<g>
</g>
<g>
</g>
<g>
</g>
<g>
</g>
<g>
</g>
<g>
</g>
<g>
</g>
<g>
</g>
<g>
</g>
<g>
</g>
<g>
</g>
<g>
</g>
<g>
</g>
<g>
</g>
<g>
</g>
</svg>
