<?xml version="1.0" encoding="iso-8859-1"?>
<!-- Generator: Adobe Illustrator 19.0.0, SVG Export Plug-In . SVG Version: 6.00 Build 0)  -->
<svg version="1.1" id="Capa_1" xmlns="http://www.w3.org/2000/svg" xmlns:xlink="http://www.w3.org/1999/xlink" x="0px" y="0px"
	 viewBox="0 0 57.072 57.072" style="enable-background:new 0 0 57.072 57.072;" xml:space="preserve">
<path style="fill:#7A3726;" d="M56.486,49.844l-1.414-1.414l0,0l-2.122-2.122c-0.781-0.781-2.047-0.781-2.828,0h0
	c-0.781,0.781-0.781,2.154,0,2.935l0.121,0.121h-6.707v-28c0-0.295,0.207-0.542,0.494-0.613c4.59-1.122,8.006-5.27,8.006-10.2
	c0-4.963-3.46-9.132-8.095-10.222c-1.234-0.29-2.405,0.698-2.405,1.965c0,0.931,0.647,1.722,1.551,1.944
	c3.1,0.761,5.333,3.753,4.894,7.169c-0.421,3.276-3.369,5.644-6.672,5.644h-1.137c-0.352,0-0.636,0.285-0.636,0.636v31.677h-9V7.11
	l0.121,0.12c0.776,0.772,2.008,0.772,2.784,0c0.776-0.771,0.776-2.022,0-2.794l-3.513-3.494c-0.776-0.771-2.034-0.771-2.81,0
	L25.713,2.34l0,0l-2.108,2.096c-0.776,0.771-0.776,2.022,0,2.794v0c0.776,0.771,2.034,0.771,2.81,0l0.121-0.12v42.254h-9V17.688
	c0-0.352-0.285-0.636-0.636-0.636h-1.137c-3.303,0-6.251-2.368-6.672-5.644C8.652,7.991,10.885,5,13.985,4.238
	c0.904-0.222,1.551-1.013,1.551-1.944c0-1.267-1.172-2.255-2.405-1.965c-4.634,1.09-8.095,5.259-8.095,10.222
	c0,4.93,3.416,9.078,8.006,10.2c0.287,0.07,0.494,0.317,0.494,0.613v28H6.828l0.122-0.122c0.781-0.781,0.781-2.154,0-2.935
	s-2.047-0.781-2.828,0l-3.536,3.536c-0.781,0.781-0.781,2.047,0,2.828L2,54.086l0,0l2.122,2.122c0.781,0.781,2.047,0.781,2.828,0h0
	c0.781-0.781,0.781-1.94,0-2.721l-0.122-0.122h43.415l-0.122,0.122c-0.781,0.781-0.781,1.94,0,2.721
	c0.781,0.781,2.047,0.781,2.828,0l3.536-3.536C57.267,51.891,57.267,50.624,56.486,49.844z"/>
<g>
</g>
<g>
</g>
<g>
</g>
<g>
</g>
<g>
</g>
<g>
</g>
<g>
</g>
<g>
</g>
<g>
</g>
<g>
</g>
<g>
</g>
<g>
</g>
<g>
</g>
<g>
</g>
<g>
</g>
</svg>
