<?xml version="1.0" encoding="iso-8859-1"?>
<!-- Generator: Adobe Illustrator 19.0.0, SVG Export Plug-In . SVG Version: 6.00 Build 0)  -->
<svg version="1.1" id="Capa_1" xmlns="http://www.w3.org/2000/svg" xmlns:xlink="http://www.w3.org/1999/xlink" x="0px" y="0px"
	 viewBox="0 0 58 58" style="enable-background:new 0 0 58 58;" xml:space="preserve">
<g>
	<path style="fill:#559A92;" d="M10,29c0-7.966,2.122-15.155,5.529-20.396l-3.435-3.926C7.698,10.808,5,19.371,5,29
		c0,9.574,2.668,18.093,7.019,24.215L15.4,49.19C12.07,43.967,10,36.864,10,29z"/>
	<path style="fill:#559A92;" d="M45.906,4.679l-3.435,3.926C45.878,13.845,48,21.034,48,29c0,7.864-2.07,14.967-5.4,20.19
		l3.381,4.025C50.332,47.093,53,38.574,53,29C53,19.371,50.302,10.808,45.906,4.679z"/>
</g>
<polygon style="fill:#6A78A6;" points="50,0 29,24 8,0 29,0 "/>
<polygon style="fill:#D9B24C;" points="16.815,4 41.185,4 29,17.926 "/>
<polygon style="fill:#6A78A6;" points="8,58 29,33 50,58 29,58 "/>
<polygon style="fill:#D9B24C;" points="16.584,54 29,39.219 41.416,54 "/>
<circle style="fill:#804537;" cx="29" cy="49" r="3"/>
<circle style="fill:#804537;" cx="29" cy="9" r="3"/>
<rect x="17" y="26" style="fill:#804537;" width="24" height="5"/>
<g>
</g>
<g>
</g>
<g>
</g>
<g>
</g>
<g>
</g>
<g>
</g>
<g>
</g>
<g>
</g>
<g>
</g>
<g>
</g>
<g>
</g>
<g>
</g>
<g>
</g>
<g>
</g>
<g>
</g>
</svg>
