<?xml version="1.0" encoding="iso-8859-1"?>
<!-- Generator: Adobe Illustrator 19.0.0, SVG Export Plug-In . SVG Version: 6.00 Build 0)  -->
<svg version="1.1" id="Capa_1" xmlns="http://www.w3.org/2000/svg" xmlns:xlink="http://www.w3.org/1999/xlink" x="0px" y="0px"
	 viewBox="0 0 45.809 45.809" style="enable-background:new 0 0 45.809 45.809;" xml:space="preserve">
<path style="fill:#868C9B;" d="M43.8,45.404L43.8,45.404c-1.037,0-1.883-0.794-1.988-1.825c-0.945-9.348-9.064-16.675-18.908-16.675
	S4.941,34.231,3.996,43.579c-0.104,1.031-0.951,1.825-1.988,1.825h0c-1.167,0-2.113-0.997-1.999-2.159
	c1.114-11.397,10.957-20.341,22.895-20.341s21.781,8.944,22.895,20.341C45.913,44.407,44.967,45.404,43.8,45.404z"/>
<path style="fill:#868C9B;" d="M43.8,0.404L43.8,0.404c-1.037,0-1.883,0.794-1.988,1.825c-0.945,9.348-9.064,16.675-18.908,16.675
	S4.941,11.577,3.996,2.23C3.892,1.198,3.045,0.404,2.009,0.404h0c-1.167,0-2.113,0.997-1.999,2.159
	C1.123,13.96,10.966,22.904,22.904,22.904S44.685,13.96,45.799,2.563C45.913,1.401,44.967,0.404,43.8,0.404z"/>
<g>
</g>
<g>
</g>
<g>
</g>
<g>
</g>
<g>
</g>
<g>
</g>
<g>
</g>
<g>
</g>
<g>
</g>
<g>
</g>
<g>
</g>
<g>
</g>
<g>
</g>
<g>
</g>
<g>
</g>
</svg>
