<?xml version="1.0" encoding="iso-8859-1"?>
<!-- Generator: Adobe Illustrator 19.0.0, SVG Export Plug-In . SVG Version: 6.00 Build 0)  -->
<svg version="1.1" id="Capa_1" xmlns="http://www.w3.org/2000/svg" xmlns:xlink="http://www.w3.org/1999/xlink" x="0px" y="0px"
	 viewBox="0 0 58 58" style="enable-background:new 0 0 58 58;" xml:space="preserve">
<polygon style="fill:#7A3726;" points="51,7 51,0 7,0 7,5 7,7 7,11 7,13 7,18 44,18 44,22 7,22 7,27 7,29 7,33 7,35 7,40 44,40 
	44,44 7,44 7,48 7,51 7,58 14,58 14,51 19,51 19,58 26,58 26,51 31,51 31,58 38,58 38,51 43,51 43,58 51,58 51,51 51,48 51,46 
	51,44 51,40 51,38 51,33 14,33 14,29 51,29 51,24 51,22 51,18 51,16 51,11 14,11 14,7 "/>
<g>
</g>
<g>
</g>
<g>
</g>
<g>
</g>
<g>
</g>
<g>
</g>
<g>
</g>
<g>
</g>
<g>
</g>
<g>
</g>
<g>
</g>
<g>
</g>
<g>
</g>
<g>
</g>
<g>
</g>
</svg>
