<?xml version="1.0" encoding="iso-8859-1"?>
<!-- Generator: Adobe Illustrator 19.0.0, SVG Export Plug-In . SVG Version: 6.00 Build 0)  -->
<svg version="1.1" id="Capa_1" xmlns="http://www.w3.org/2000/svg" xmlns:xlink="http://www.w3.org/1999/xlink" x="0px" y="0px"
	 viewBox="0 0 53.117 53.117" style="enable-background:new 0 0 53.117 53.117;" xml:space="preserve">
<polygon style="fill:#804537;" points="31.705,19.534 25.117,18 28.117,5 34.705,6.534 "/>
<path style="fill:#7F5B53;" d="M23.98,6.28c-0.433-0.101-0.665-0.589-0.505-1.037c1.326-3.733,5.272-5.955,9.22-5.036
	s6.507,4.656,6.047,8.591c-0.055,0.473-0.479,0.808-0.912,0.707L23.98,6.28z"/>
<polygon style="fill:#804537;" points="21.529,33 28.117,34.534 25.117,47.534 18.529,46 "/>
<path style="fill:#7F5B53;" d="M29.137,46.837c0.433,0.101,0.665,0.589,0.505,1.037c-1.326,3.733-5.272,5.955-9.22,5.036
	s-6.507-4.656-6.047-8.591c0.055-0.473,0.479-0.808,0.912-0.707L29.137,46.837z"/>
<polygon style="fill:#804537;" points="33.583,31.588 35.117,25 47.651,28 46.117,34.588 "/>
<path style="fill:#7F5B53;" d="M46.837,23.98c0.101-0.433,0.589-0.665,1.037-0.505c3.733,1.326,5.955,5.272,5.036,9.22
	s-4.656,6.507-8.591,6.047c-0.473-0.055-0.808-0.479-0.707-0.912L46.837,23.98z"/>
<polygon style="fill:#804537;" points="21.651,22 20.117,28.588 5.117,25 6.651,18.412 "/>
<path style="fill:#7F5B53;" d="M6.28,29.137c-0.101,0.433-0.589,0.665-1.037,0.505c-3.733-1.326-5.955-5.272-5.036-9.22
	s4.656-6.507,8.591-6.047c0.473,0.055,0.808,0.479,0.707,0.912L6.28,29.137z"/>
<circle style="fill:#7F5B53;" cx="26.558" cy="26.558" r="10.146"/>
<g>
</g>
<g>
</g>
<g>
</g>
<g>
</g>
<g>
</g>
<g>
</g>
<g>
</g>
<g>
</g>
<g>
</g>
<g>
</g>
<g>
</g>
<g>
</g>
<g>
</g>
<g>
</g>
<g>
</g>
</svg>
