<?xml version="1.0" encoding="iso-8859-1"?>
<!-- Generator: Adobe Illustrator 19.0.0, SVG Export Plug-In . SVG Version: 6.00 Build 0)  -->
<svg version="1.1" id="Capa_1" xmlns="http://www.w3.org/2000/svg" xmlns:xlink="http://www.w3.org/1999/xlink" x="0px" y="0px"
	 viewBox="0 0 56 56" style="enable-background:new 0 0 56 56;" xml:space="preserve">
<path style="fill:#71C285;" d="M44.084,26c-2.057-3.172-6.499-5.72-10.199-5.991c-0.325-0.023-0.652-0.036-1.011-0.037l-0.189-0.002
	c-1.198,0-5.45,0.139-9.851,1.919L20.084,23V5h2.5c1.381,0,2.5-1.119,2.5-2.5v0c0-1.381-1.119-2.5-2.5-2.5h-10
	c-1.381,0-2.5,1.119-2.5,2.5v0c0,1.381,1.119,2.5,2.5,2.5h2.5v48.307c0,1.384,0.987,2.561,2.248,2.681
	c0.149,0.015,0.295,0.016,0.438,0.006c1.307-0.085,2.314-1.189,2.314-2.498v-24.5l0.806-0.6c4.489-3.34,10.581-3.51,11.757-3.51
	l0.212,0.003c0.245,0,0.488,0.009,0.73,0.026c3.344,0.245,5.193,2.364,5.997,3.604c1.448,2.232,1.774,5.054,0.872,7.546
	c-0.922,2.547-2.786,5.391-5.393,8.225c-1.372,1.491-2.215,3.214-2.436,4.983c-0.175,1.389,0.322,3.298,1.33,5.105
	c0.419,0.752,1.111,1.2,1.853,1.2c0.445,0,1.896-0.258,2.271-0.579c0.745-0.638,0.935-1.697,0.45-2.519
	c-0.917-1.554-0.83-2.257-0.792-2.558c0.087-0.694,0.413-1.912,1.342-2.924c2.962-3.219,4.899-5.958,6-9
	C46.408,34.337,46.208,29.276,44.084,26z"/>
<g>
</g>
<g>
</g>
<g>
</g>
<g>
</g>
<g>
</g>
<g>
</g>
<g>
</g>
<g>
</g>
<g>
</g>
<g>
</g>
<g>
</g>
<g>
</g>
<g>
</g>
<g>
</g>
<g>
</g>
</svg>
