<?xml version="1.0" encoding="iso-8859-1"?>
<!-- Generator: Adobe Illustrator 19.0.0, SVG Export Plug-In . SVG Version: 6.00 Build 0)  -->
<svg version="1.1" id="Capa_1" xmlns="http://www.w3.org/2000/svg" xmlns:xlink="http://www.w3.org/1999/xlink" x="0px" y="0px"
	 viewBox="0 0 57 57" style="enable-background:new 0 0 57 57;" xml:space="preserve">
<path style="fill:#2FA8CC;" d="M31.475,17.245C31.482,17.163,31.5,17.084,31.5,17v-2.615v-4.172l3.393,3.393
	c1.172,1.172,3.071,1.172,4.243,0c1.172-1.172,1.172-3.071,0-4.243l-8.485-8.485c-1.172-1.172-3.071-1.172-4.243,0l-8.485,8.485
	c-1.172,1.172-1.172,3.071,0,4.243c1.172,1.172,3.071,1.172,4.243,0l3.334-3.334v4.113V17c0,0.084,0.018,0.163,0.025,0.245
	C15.894,18.686,8.5,26.968,8.5,37c0,11.046,8.954,20,20,20s20-8.954,20-20C48.5,26.968,41.106,18.686,31.475,17.245z M28.5,42
	c-2.757,0-5-2.243-5-5s2.243-5,5-5s5,2.243,5,5S31.257,42,28.5,42z"/>
<path style="fill:#9FCACC;" d="M28.5,22c-8.271,0-15,6.729-15,15s6.729,15,15,15s15-6.729,15-15S36.771,22,28.5,22z M28.5,42
	c-2.757,0-5-2.243-5-5s2.243-5,5-5s5,2.243,5,5S31.257,42,28.5,42z"/>
<path style="fill:#ADD7DB;" d="M28.5,27c-5.514,0-10,4.486-10,10s4.486,10,10,10s10-4.486,10-10S34.014,27,28.5,27z M28.5,42
	c-2.757,0-5-2.243-5-5s2.243-5,5-5s5,2.243,5,5S31.257,42,28.5,42z"/>
<g>
</g>
<g>
</g>
<g>
</g>
<g>
</g>
<g>
</g>
<g>
</g>
<g>
</g>
<g>
</g>
<g>
</g>
<g>
</g>
<g>
</g>
<g>
</g>
<g>
</g>
<g>
</g>
<g>
</g>
</svg>
