<?xml version="1.0" encoding="iso-8859-1"?>
<!-- Generator: Adobe Illustrator 19.0.0, SVG Export Plug-In . SVG Version: 6.00 Build 0)  -->
<svg version="1.1" id="Capa_1" xmlns="http://www.w3.org/2000/svg" xmlns:xlink="http://www.w3.org/1999/xlink" x="0px" y="0px"
	 viewBox="0 0 56 56" style="enable-background:new 0 0 56 56;" xml:space="preserve">
<path style="fill:#D75A4A;" d="M48,20C48,8.954,39.046,0,28,0S8,8.954,8,20c0,10.032,7.394,18.314,17.025,19.755
	C25.018,39.837,25,39.916,25,40v4h-4c-1.657,0-3,1.343-3,3s1.343,3,3,3h4v3c0,1.657,1.343,3,3,3s3-1.343,3-3v-3h4
	c1.657,0,3-1.343,3-3s-1.343-3-3-3h-4v-4c0-0.084-0.018-0.163-0.025-0.245C40.606,38.314,48,30.032,48,20z"/>
<path style="fill:#E57E25;" d="M28,35c-8.271,0-15-6.729-15-15S19.729,5,28,5s15,6.729,15,15S36.271,35,28,35z"/>
<g>
</g>
<g>
</g>
<g>
</g>
<g>
</g>
<g>
</g>
<g>
</g>
<g>
</g>
<g>
</g>
<g>
</g>
<g>
</g>
<g>
</g>
<g>
</g>
<g>
</g>
<g>
</g>
<g>
</g>
</svg>
