<?xml version="1.0" encoding="iso-8859-1"?>
<!-- Generator: Adobe Illustrator 19.0.0, SVG Export Plug-In . SVG Version: 6.00 Build 0)  -->
<svg version="1.1" id="Capa_1" xmlns="http://www.w3.org/2000/svg" xmlns:xlink="http://www.w3.org/1999/xlink" x="0px" y="0px"
	 viewBox="0 0 58 58" style="enable-background:new 0 0 58 58;" xml:space="preserve">
<circle style="fill:#4FBA6F;" cx="20" cy="37" r="3"/>
<circle style="fill:#4FBA6F;" cx="20" cy="19" r="3"/>
<circle style="fill:#4FBA6F;" cx="38" cy="19" r="3"/>
<circle style="fill:#4FBA6F;" cx="38" cy="37" r="3"/>
<path style="fill:#527F72;" d="M55.893,26h-24.12C31.346,26,31,25.654,31,25.227V2.107c0-0.996-0.681-1.92-1.664-2.08
	C28.083-0.176,27,0.785,27,2v23.227C27,25.654,26.654,26,26.227,26H2.107c-0.996,0-1.92,0.681-2.08,1.664
	C-0.177,28.917,0.785,30,2,30h24.227C26.654,30,27,30.346,27,30.773v25.12c0,0.996,0.681,1.92,1.664,2.08
	C29.917,58.176,31,57.215,31,56V30.773C31,30.346,31.346,30,31.773,30H56c1.215,0,2.177-1.083,1.973-2.336
	C57.813,26.681,56.889,26,55.893,26z"/>
<g>
</g>
<g>
</g>
<g>
</g>
<g>
</g>
<g>
</g>
<g>
</g>
<g>
</g>
<g>
</g>
<g>
</g>
<g>
</g>
<g>
</g>
<g>
</g>
<g>
</g>
<g>
</g>
<g>
</g>
</svg>
