<?xml version="1.0" encoding="iso-8859-1"?>
<!-- Generator: Adobe Illustrator 19.0.0, SVG Export Plug-In . SVG Version: 6.00 Build 0)  -->
<svg version="1.1" id="Capa_1" xmlns="http://www.w3.org/2000/svg" xmlns:xlink="http://www.w3.org/1999/xlink" x="0px" y="0px"
	 viewBox="0 0 57.747 57.747" style="enable-background:new 0 0 57.747 57.747;" xml:space="preserve">
<path style="fill:#527F72;" d="M55.168,22.355l-3.385-3.404c-0.57-0.573-1.426-0.824-2.188-0.553
	c-1.507,0.535-1.552,2.386-0.595,3.349H31v-15c0.963,0.957,2.814,0.912,3.349-0.595c0.27-0.762,0.02-1.618-0.553-2.188L30.393,0.58
	c-0.777-0.773-2.033-0.773-2.81,0l-1.405,1.397l0,0L24.07,4.073c-0.776,0.771-0.776,2.022,0,2.794v0
	C24.846,7.639,26.225,7.518,27,6.747v15H9c0.772-0.776,0.638-2.129-0.134-2.905c-0.771-0.776-2.022-0.776-2.794,0l-3.494,3.513
	c-0.773,0.777-0.773,2.033,0,2.81l1.397,1.405l0,0l2.096,2.108c0.771,0.776,2.022,0.776,2.794,0h0
	C9.639,27.902,9.772,26.523,9,25.747h18v27.737c0,0.145-0.118,0.263-0.263,0.263h-5.63c-0.611,0-1.107,0.496-1.107,1.107v1.786
	c0,0.611,0.496,1.107,1.107,1.107h15.786c0.611,0,1.107-0.496,1.107-1.107v-1.786c0-0.611-0.496-1.107-1.107-1.107h-5.63
	c-0.145,0-0.263-0.118-0.263-0.263V25.747h18c-0.771,0.776-0.892,2.155-0.121,2.931h0c0.771,0.776,2.022,0.776,2.794,0l2.096-2.108
	l0,0l1.397-1.405C55.941,24.388,55.941,23.132,55.168,22.355z"/>
<g>
</g>
<g>
</g>
<g>
</g>
<g>
</g>
<g>
</g>
<g>
</g>
<g>
</g>
<g>
</g>
<g>
</g>
<g>
</g>
<g>
</g>
<g>
</g>
<g>
</g>
<g>
</g>
<g>
</g>
</svg>
