<?xml version="1.0" encoding="iso-8859-1"?>
<!-- Generator: Adobe Illustrator 19.0.0, SVG Export Plug-In . SVG Version: 6.00 Build 0)  -->
<svg version="1.1" id="Capa_1" xmlns="http://www.w3.org/2000/svg" xmlns:xlink="http://www.w3.org/1999/xlink" x="0px" y="0px"
	 viewBox="0 0 58 58" style="enable-background:new 0 0 58 58;" xml:space="preserve">
<path style="fill:#2980BA;" d="M54.182,11.586l-1.414-1.414l0,0l-2.122-2.122c-0.781-0.781-2.047-0.781-2.828,0h0
	c-0.781,0.781-0.781,2.047,0,2.828L47.939,11H31V2c0-1.105-0.895-2-2-2s-2,0.895-2,2v9H10.06l0.122-0.122
	c0.781-0.781,0.781-2.047,0-2.828s-2.047-0.781-2.828,0l-3.536,3.536c-0.781,0.781-0.781,2.047,0,2.828l1.414,1.414l0,0l2.122,2.122
	c0.781,0.781,2.047,0.781,2.828,0h0c0.781-0.781,0.781-2.047,0-2.828L10.061,15H27v5.107c-9.553,1-17,9.076-17,18.893
	c0,10.493,8.507,19,19,19s19-8.507,19-19c0-9.818-7.447-17.893-17-18.893V15h16.94l-0.122,0.122c-0.781,0.781-0.781,2.047,0,2.828
	c0.781,0.781,2.047,0.781,2.828,0l3.536-3.536C54.963,13.633,54.963,12.367,54.182,11.586z M44,39c0,8.284-6.716,15-15,15
	s-15-6.716-15-15c0-8.284,6.716-15,15-15S44,30.716,44,39z"/>
<g>
</g>
<g>
</g>
<g>
</g>
<g>
</g>
<g>
</g>
<g>
</g>
<g>
</g>
<g>
</g>
<g>
</g>
<g>
</g>
<g>
</g>
<g>
</g>
<g>
</g>
<g>
</g>
<g>
</g>
</svg>
