<?xml version="1.0" encoding="iso-8859-1"?>
<!-- Generator: Adobe Illustrator 19.0.0, SVG Export Plug-In . SVG Version: 6.00 Build 0)  -->
<svg version="1.1" id="Capa_1" xmlns="http://www.w3.org/2000/svg" xmlns:xlink="http://www.w3.org/1999/xlink" x="0px" y="0px"
	 viewBox="0 0 56 56" style="enable-background:new 0 0 56 56;" xml:space="preserve">
<g>
	<path style="fill:#7F5B53;" d="M45.158,28.463c-0.002,0.001-0.005,0.001-0.008,0.002c-0.727,1.315-1.637,2.541-2.722,3.639
		C42.794,33.185,43,34.321,43,35.5c0,5.138-3.725,9.113-9.044,10.942C32.798,46.84,31.571,47,30.348,47h-4.695
		c-1.224,0-2.451-0.16-3.608-0.558C16.725,44.613,13,40.638,13,35.5c0-5.747,4.661-10.576,11-12.037V0h-4v20.538
		C13.39,23.196,9,29.001,9,35.5c0,5.208,2.819,10.316,7.342,13.508C18.257,50.36,20.586,51,22.93,51H33.04
		c2.577,0,5.1-0.82,7.15-2.382C44.4,45.41,47,40.501,47,35.5C47,33.002,46.334,30.615,45.158,28.463z"/>
	<path style="fill:#7F5B53;" d="M40.418,28.507c0.001-0.001,0.003-0.001,0.004-0.001c0.909-1.118,1.593-2.369,2.032-3.705
		c-1.752-1.785-3.941-3.253-6.454-4.263V0h-4v23.463C35.477,24.264,38.443,26.083,40.418,28.507z"/>
</g>
<g>
	<path style="fill:#C3A97E;" d="M13,21.5c0-4.448,2.799-8.339,7-10.551V6.538C13.39,9.196,9,15.001,9,21.5
		c0,2.481,0.643,4.858,1.802,7c0.721-1.334,1.643-2.576,2.738-3.693C13.193,23.753,13,22.646,13,21.5z"/>
	<path style="fill:#C3A97E;" d="M15.588,28.5c-0.228,0.279-0.442,0.566-0.642,0.86l0,0c-0.2,0.293-0.385,0.594-0.557,0.901
		c-0.001,0.001-0.002,0.003-0.002,0.004c-0.171,0.307-0.327,0.621-0.468,0.942c-0.001,0.001-0.001,0.003-0.002,0.004
		c-0.141,0.321-0.267,0.648-0.377,0.981c0,0,0,0.001,0,0.001c1.753,1.788,3.944,3.258,6.46,4.27v9.128
		c0.65,0.32,1.332,0.606,2.044,0.851c0.635,0.218,1.291,0.359,1.956,0.447V33.537C20.526,32.736,17.563,30.92,15.588,28.5z"/>
	<path style="fill:#C3A97E;" d="M36,6.538v4.412c4.201,2.212,7,6.102,7,10.551c0,1.146-0.193,2.253-0.54,3.307
		c0.013,0.013,0.024,0.027,0.037,0.04c-0.015-0.015-0.028-0.032-0.043-0.047c-0.439,1.337-1.626,3.121-2.042,3.699
		c-1.975,2.42-4.938,4.236-8.412,5.037v13.352c0.665-0.088,1.321-0.229,1.956-0.447c0.713-0.245,1.394-0.531,2.044-0.851v-9.128
		c5.812-1.994,9.188-7.982,9.198-7.962c1.158-2.142,1.802-4.519,1.802-7C47,15.001,42.61,9.196,36,6.538z"/>
	<path style="fill:#C3A97E;" d="M32,51v5h4v-5.372C35.038,50.872,34.044,51,33.04,51H32z"/>
	<path style="fill:#C3A97E;" d="M20,50.645V56h4v-5h-1.07C21.94,51,20.955,50.878,20,50.645z"/>
	<rect x="24" y="6" style="fill:#C3A97E;" width="8" height="4"/>
</g>
<g>
</g>
<g>
</g>
<g>
</g>
<g>
</g>
<g>
</g>
<g>
</g>
<g>
</g>
<g>
</g>
<g>
</g>
<g>
</g>
<g>
</g>
<g>
</g>
<g>
</g>
<g>
</g>
<g>
</g>
</svg>
