<?xml version="1.0" encoding="iso-8859-1"?>
<!-- Generator: Adobe Illustrator 19.0.0, SVG Export Plug-In . SVG Version: 6.00 Build 0)  -->
<svg version="1.1" id="Capa_1" xmlns="http://www.w3.org/2000/svg" xmlns:xlink="http://www.w3.org/1999/xlink" x="0px" y="0px"
	 viewBox="0 0 58 58" style="enable-background:new 0 0 58 58;" xml:space="preserve">
<path style="fill:#AF8066;" d="M41.75,0c-5.888,0-10.5,6.149-10.5,14s4.612,14,10.5,14s10.5-6.149,10.5-14S47.638,0,41.75,0z
	 M41.75,23.625c-3.383,0-6.125-4.309-6.125-9.625s2.742-9.625,6.125-9.625S47.875,8.684,47.875,14S45.133,23.625,41.75,23.625z"/>
<path style="fill:#E4C05C;" d="M41.75,23.625c1.761,0,3.344-1.175,4.462-3.045C46.017,18.018,44.106,16,41.75,16
	s-4.267,2.018-4.462,4.58C38.406,22.45,39.989,23.625,41.75,23.625z"/>
<path style="fill:#AF8066;" d="M16.25,0c-5.888,0-10.5,6.149-10.5,14s4.612,14,10.5,14s10.5-6.149,10.5-14S22.138,0,16.25,0z
	 M16.25,23.625c-3.383,0-6.125-4.309-6.125-9.625s2.742-9.625,6.125-9.625S22.375,8.684,22.375,14S19.633,23.625,16.25,23.625z"/>
<path style="fill:#E4C05C;" d="M16.25,23.625c1.761,0,3.344-1.175,4.462-3.045C20.517,18.018,18.606,16,16.25,16
	s-4.267,2.018-4.462,4.58C12.906,22.45,14.489,23.625,16.25,23.625z"/>
<path style="fill:#AF8066;" d="M41.75,30c-5.888,0-10.5,6.149-10.5,14s4.612,14,10.5,14s10.5-6.149,10.5-14S47.638,30,41.75,30z
	 M41.75,53.625c-3.383,0-6.125-4.309-6.125-9.625s2.742-9.625,6.125-9.625s6.125,4.309,6.125,9.625S45.133,53.625,41.75,53.625z"/>
<path style="fill:#E4C05C;" d="M41.75,53.625c1.761,0,3.344-1.175,4.462-3.045C46.017,48.018,44.106,46,41.75,46
	s-4.267,2.018-4.462,4.58C38.406,52.45,39.989,53.625,41.75,53.625z"/>
<path style="fill:#AF8066;" d="M16.25,30c-5.888,0-10.5,6.149-10.5,14s4.612,14,10.5,14s10.5-6.149,10.5-14S22.138,30,16.25,30z
	 M16.25,53.625c-3.383,0-6.125-4.309-6.125-9.625s2.742-9.625,6.125-9.625s6.125,4.309,6.125,9.625S19.633,53.625,16.25,53.625z"/>
<path style="fill:#E4C05C;" d="M16.25,53.625c1.761,0,3.344-1.175,4.462-3.045C20.517,48.018,18.606,46,16.25,46
	s-4.267,2.018-4.462,4.58C12.906,52.45,14.489,53.625,16.25,53.625z"/>
<g>
</g>
<g>
</g>
<g>
</g>
<g>
</g>
<g>
</g>
<g>
</g>
<g>
</g>
<g>
</g>
<g>
</g>
<g>
</g>
<g>
</g>
<g>
</g>
<g>
</g>
<g>
</g>
<g>
</g>
</svg>
