<?xml version="1.0" encoding="iso-8859-1"?>
<!-- Generator: Adobe Illustrator 19.0.0, SVG Export Plug-In . SVG Version: 6.00 Build 0)  -->
<svg version="1.1" id="Capa_1" xmlns="http://www.w3.org/2000/svg" xmlns:xlink="http://www.w3.org/1999/xlink" x="0px" y="0px"
	 viewBox="0 0 59 59" style="enable-background:new 0 0 59 59;" xml:space="preserve">
<circle style="fill:#804537;" cx="20.5" cy="51" r="8"/>
<path style="fill:#7F5B53;" d="M20.5,55c-2.206,0-4-1.794-4-4s1.794-4,4-4s4,1.794,4,4S22.706,55,20.5,55z"/>
<circle style="fill:#804537;" cx="38.5" cy="51" r="8"/>
<path style="fill:#7F5B53;" d="M38.5,55c-2.206,0-4-1.794-4-4s1.794-4,4-4s4,1.794,4,4S40.706,55,38.5,55z"/>
<path style="fill:#804537;" d="M31.5,28.262V6.746l0.121,0.12c0.776,0.772,2.008,0.772,2.784,0c0.776-0.771,0.776-2.022,0-2.794
	l-3.513-3.494c-0.776-0.771-2.034-0.771-2.81,0l-1.405,1.397l0,0l-2.108,2.096c-0.776,0.771-0.776,2.022,0,2.794v0
	c0.776,0.771,2.034,0.771,2.81,0l0.121-0.12v21.516c-3.449,0.889-6,4.011-6,7.738c0,4.418,3.582,8,8,8s8-3.582,8-8
	C37.5,32.274,34.949,29.152,31.5,28.262z"/>
<path style="fill:#7F5B53;" d="M29.5,40c-2.206,0-4-1.794-4-4s1.794-4,4-4s4,1.794,4,4S31.706,40,29.5,40z"/>
<g>
</g>
<g>
</g>
<g>
</g>
<g>
</g>
<g>
</g>
<g>
</g>
<g>
</g>
<g>
</g>
<g>
</g>
<g>
</g>
<g>
</g>
<g>
</g>
<g>
</g>
<g>
</g>
<g>
</g>
</svg>
