<?xml version="1.0" encoding="iso-8859-1"?>
<!-- Generator: Adobe Illustrator 19.0.0, SVG Export Plug-In . SVG Version: 6.00 Build 0)  -->
<svg version="1.1" id="Capa_1" xmlns="http://www.w3.org/2000/svg" xmlns:xlink="http://www.w3.org/1999/xlink" x="0px" y="0px"
	 viewBox="0 0 60 60" style="enable-background:new 0 0 60 60;" xml:space="preserve">
<rect style="fill:#556080;" width="60" height="60"/>
<rect x="5" y="5" style="fill:#4FBA6F;" width="25" height="25"/>
<rect x="30" y="5" style="fill:#F0785A;" width="25" height="25"/>
<path style="fill:#556080;" d="M7,7v21h21V7H7z M16.086,17.5L9,24.586V10.414L16.086,17.5z M10.414,9h14.172L17.5,16.086L10.414,9z
	 M17.5,18.914L24.586,26H10.414L17.5,18.914z M18.914,17.5L26,10.414v14.172L18.914,17.5z"/>
<path style="fill:#556080;" d="M32,7v21h21V7H32z M41.086,17.5L34,24.586V10.414L41.086,17.5z M35.414,9h14.172L42.5,16.086
	L35.414,9z M42.5,18.914L49.586,26H35.414L42.5,18.914z M43.914,17.5L51,10.414v14.172L43.914,17.5z"/>
<rect x="5" y="30" style="fill:#CB8252;" width="25" height="25"/>
<rect x="30" y="30" style="fill:#8697CB;" width="25" height="25"/>
<path style="fill:#556080;" d="M7,32v21h21V32H7z M16.086,42.5L9,49.586V35.414L16.086,42.5z M10.414,34h14.172L17.5,41.086
	L10.414,34z M17.5,43.914L24.586,51H10.414L17.5,43.914z M18.914,42.5L26,35.414v14.172L18.914,42.5z"/>
<path style="fill:#556080;" d="M32,32v21h21V32H32z M41.086,42.5L34,49.586V35.414L41.086,42.5z M35.414,34h14.172L42.5,41.086
	L35.414,34z M42.5,43.914L49.586,51H35.414L42.5,43.914z M43.914,42.5L51,35.414v14.172L43.914,42.5z"/>
<g>
</g>
<g>
</g>
<g>
</g>
<g>
</g>
<g>
</g>
<g>
</g>
<g>
</g>
<g>
</g>
<g>
</g>
<g>
</g>
<g>
</g>
<g>
</g>
<g>
</g>
<g>
</g>
<g>
</g>
</svg>
