<?xml version="1.0" encoding="iso-8859-1"?>
<!-- Generator: Adobe Illustrator 19.0.0, SVG Export Plug-In . SVG Version: 6.00 Build 0)  -->
<svg version="1.1" id="Capa_1" xmlns="http://www.w3.org/2000/svg" xmlns:xlink="http://www.w3.org/1999/xlink" x="0px" y="0px"
	 viewBox="0 0 56.252 56.252" style="enable-background:new 0 0 56.252 56.252;" xml:space="preserve">
<path style="fill:#556080;" d="M28.126,18.252c-10.477,0-19,8.523-19,19c0,10.477,8.523,19,19,19s19-8.523,19-19
	C47.126,26.775,38.603,18.252,28.126,18.252z M28.126,52.252c-8.284,0-15-6.716-15-15c0-8.284,6.716-15,15-15s15,6.716,15,15
	C43.126,45.536,36.41,52.252,28.126,52.252z"/>
<path style="fill:#556080;" d="M49.3,24.662L28.456,5.554c-0.187-0.171-0.473-0.171-0.66,0L6.952,24.662
	c-0.814,0.747-2.08,0.691-2.826-0.123l0,0c-0.746-0.814-0.691-2.08,0.123-2.826L27.796,0.128c0.187-0.171,0.473-0.171,0.66,0
	l23.547,21.584c0.814,0.746,0.869,2.012,0.123,2.826l0,0C51.379,25.353,50.114,25.408,49.3,24.662z"/>
<g>
</g>
<g>
</g>
<g>
</g>
<g>
</g>
<g>
</g>
<g>
</g>
<g>
</g>
<g>
</g>
<g>
</g>
<g>
</g>
<g>
</g>
<g>
</g>
<g>
</g>
<g>
</g>
<g>
</g>
</svg>
