<?xml version="1.0" encoding="iso-8859-1"?>
<!-- Generator: Adobe Illustrator 19.0.0, SVG Export Plug-In . SVG Version: 6.00 Build 0)  -->
<svg version="1.1" id="Capa_1" xmlns="http://www.w3.org/2000/svg" xmlns:xlink="http://www.w3.org/1999/xlink" x="0px" y="0px"
	 viewBox="0 0 60.657 60.657" style="enable-background:new 0 0 60.657 60.657;" xml:space="preserve">
<path style="fill:#BDC3C7;" d="M30.657,50.657c-6.617,0-12-5.383-12-12s5.383-12,12-12s12,5.383,12,12S37.273,50.657,30.657,50.657z
	"/>
<circle style="fill:#7F8C8D;" cx="30.657" cy="38.657" r="8"/>
<path style="fill:#7F8C8D;" d="M0.584,28.743L0.584,28.743c0.689-0.689,1.783-0.791,2.568-0.213
	c4.301,3.163,10.401,2.801,14.29-1.088s4.252-9.989,1.088-14.29c-0.577-0.785-0.476-1.879,0.213-2.568l0,0
	c0.876-0.876,2.322-0.747,3.051,0.254c4.271,5.863,3.763,14.145-1.524,19.432S6.701,36.065,0.838,31.794
	C-0.163,31.065-0.292,29.619,0.584,28.743z"/>
<path style="fill:#7F8C8D;" d="M60.073,28.743L60.073,28.743c-0.689-0.689-1.783-0.791-2.568-0.213
	c-4.301,3.163-10.401,2.801-14.29-1.088s-4.252-9.989-1.088-14.29c0.577-0.785,0.476-1.879-0.213-2.568l0,0
	c-0.876-0.876-2.322-0.747-3.051,0.254c-4.271,5.863-3.763,14.145,1.524,19.432s13.569,5.795,19.432,1.524
	C60.82,31.065,60.949,29.619,60.073,28.743z"/>
<g>
</g>
<g>
</g>
<g>
</g>
<g>
</g>
<g>
</g>
<g>
</g>
<g>
</g>
<g>
</g>
<g>
</g>
<g>
</g>
<g>
</g>
<g>
</g>
<g>
</g>
<g>
</g>
<g>
</g>
</svg>
