<?xml version="1.0" encoding="iso-8859-1"?>
<!-- Generator: Adobe Illustrator 19.0.0, SVG Export Plug-In . SVG Version: 6.00 Build 0)  -->
<svg version="1.1" id="Capa_1" xmlns="http://www.w3.org/2000/svg" xmlns:xlink="http://www.w3.org/1999/xlink" x="0px" y="0px"
	 viewBox="0 0 57.748 57.748" style="enable-background:new 0 0 57.748 57.748;" xml:space="preserve">
<path style="fill:#556080;" d="M53.363,30.951c-0.57-0.573-1.426-0.824-2.188-0.553c-1.507,0.535-1.552,2.386-0.595,3.349h-6.643v-1
	v-4v-7h6.643c-0.771,0.776-0.892,2.155-0.121,2.931h0c0.771,0.776,2.022,0.776,2.794,0l2.096-2.108l0,0l1.397-1.405
	c0.773-0.777,0.773-2.033,0-2.81l-3.385-3.404c-0.57-0.573-1.426-0.824-2.188-0.553c-1.507,0.535-1.552,2.386-0.595,3.349h-6.643
	v-11c0.776,0.771,2.155,0.892,2.931,0.121v0c0.776-0.771,0.776-2.022,0-2.794L44.76,1.977l0,0L43.356,0.58
	c-0.777-0.773-2.033-0.773-2.81,0l-3.404,3.385c-0.573,0.57-0.824,1.426-0.553,2.188c0.535,1.507,2.386,1.552,3.349,0.595v11h-9h-4
	h-9v-11c0.776,0.771,2.155,0.892,2.931,0.121v0c0.776-0.771,0.776-2.022,0-2.794L18.76,1.977l0,0L17.356,0.58
	c-0.777-0.773-2.033-0.773-2.81,0l-3.404,3.385c-0.573,0.57-0.824,1.426-0.553,2.188c0.535,1.507,2.386,1.552,3.349,0.595v11H7.422
	c0.772-0.776,0.638-2.129-0.134-2.905c-0.771-0.776-2.022-0.776-2.794,0L1,18.355c-0.773,0.777-0.773,2.033,0,2.81l1.397,1.405l0,0
	l2.096,2.108c0.771,0.776,2.022,0.776,2.794,0h0c0.771-0.776,0.905-2.155,0.133-2.931h6.516v7v4v1H7.422
	c0.772-0.776,0.638-2.129-0.134-2.905c-0.771-0.776-2.022-0.776-2.794,0L1,34.355c-0.773,0.777-0.773,2.033,0,2.81l1.397,1.405l0,0
	l2.096,2.108c0.771,0.776,2.022,0.776,2.794,0h0c0.771-0.776,0.905-2.155,0.133-2.931h6.516v13
	c-0.776-0.772-2.129-0.638-2.905,0.134c-0.776,0.771-0.776,2.022,0,2.794l3.513,3.494c0.777,0.773,2.033,0.773,2.81,0l1.405-1.397
	l0,0l2.108-2.096c0.776-0.771,0.776-2.022,0-2.794v0c-0.776-0.771-2.155-0.905-2.931-0.133v-13h9h4h9v13
	c-0.776-0.772-2.129-0.638-2.905,0.134c-0.776,0.771-0.776,2.022,0,2.794l3.513,3.494c0.777,0.773,2.033,0.773,2.81,0l1.405-1.397
	l0,0l2.108-2.096c0.776-0.771,0.776-2.022,0-2.794v0c-0.776-0.771-2.155-0.905-2.931-0.133v-13h6.643
	c-0.771,0.776-0.892,2.155-0.121,2.931h0c0.771,0.776,2.022,0.776,2.794,0l2.096-2.108l0,0l1.397-1.405
	c0.773-0.777,0.773-2.033,0-2.81L53.363,30.951z M30.938,33.747h-4h-9v-1v-4v-7h9h4h9v7v4v1H30.938z"/>
<circle style="fill:#BDC3C7;" cx="23.938" cy="27.747" r="3"/>
<circle style="fill:#BDC3C7;" cx="33.938" cy="27.747" r="3"/>
<g>
</g>
<g>
</g>
<g>
</g>
<g>
</g>
<g>
</g>
<g>
</g>
<g>
</g>
<g>
</g>
<g>
</g>
<g>
</g>
<g>
</g>
<g>
</g>
<g>
</g>
<g>
</g>
<g>
</g>
</svg>
